<svg xmlns="http://www.w3.org/2000/svg" xmlns:xlink="http://www.w3.org/1999/xlink" viewBox="0 0 412.95 339.74"><defs><style>.cls-1,.cls-17,.cls-2,.cls-3,.cls-7,.cls-9{fill:#fff;}.cls-1,.cls-12,.cls-16,.cls-2,.cls-20,.cls-3{stroke:#263238;}.cls-1,.cls-12,.cls-13,.cls-16,.cls-18,.cls-2,.cls-20,.cls-21,.cls-3,.cls-8{stroke-miterlimit:10;}.cls-1,.cls-12{stroke-width:0.69px;}.cls-16,.cls-2{stroke-width:0.53px;}.cls-20,.cls-3{stroke-width:0.65px;}.cls-4{isolation:isolate;}.cls-13,.cls-18,.cls-21,.cls-5,.cls-8{fill:#1a1e24;}.cls-6{fill:#b8c1c9;}.cls-7{opacity:0.6;}.cls-13,.cls-18,.cls-21,.cls-8{stroke:#adbac7;}.cls-8{stroke-width:0.92px;}.cls-10{clip-path:url(#clip-path);}.cls-11,.cls-14{fill:#adbac7;}.cls-11{mix-blend-mode:multiply;}.cls-11,.cls-17{opacity:0.4;}.cls-12,.cls-16,.cls-20{fill:none;}.cls-13{stroke-width:0.69px;}.cls-15{clip-path:url(#clip-path-2);}.cls-18{stroke-width:0.87px;}.cls-19{clip-path:url(#clip-path-3);}.cls-21{stroke-width:0.65px;}</style><clipPath id="clip-path"><rect class="cls-1" x="47.91" y="109.67" width="305.58" height="172.69"/></clipPath><clipPath id="clip-path-2"><rect class="cls-2" x="106.09" y="195.16" width="69.92" height="113.13"/></clipPath><clipPath id="clip-path-3"><rect class="cls-3" x="222.93" y="174.28" width="101.89" height="188.71" transform="translate(542.51 -5.23) rotate(90)"/></clipPath></defs><g class="cls-4"><g id="Capa_2" data-name="Capa 2"><g id="Background_simple" data-name="Background simple"><path class="cls-5" d="M372.23,26.94c-43.32-41.57-105-30.16-139,1.28-24.77,23-63.79,56.34-94,54.89-29.91-1.44-64.15-22.23-101.36-6.25C1.19,92.63-8.84,144.75,7.76,184.61c16.67,40,77.45,72.51,151,102.83a215,215,0,0,0,85.36,16.68s66.58-.68,91.6-16.7c19.59-12.54,27.94-20.77,49.12-52.75,16-24.19,26.72-58.22,27.92-91.17C414.28,103.23,404.59,58,372.23,26.94Zm0,0c-43.32-41.57-105-30.16-139,1.28-24.77,23-63.79,56.34-94,54.89-29.91-1.44-64.15-22.23-101.36-6.25C1.19,92.63-8.84,144.75,7.76,184.61c16.67,40,77.45,72.51,151,102.83a215,215,0,0,0,85.36,16.68s66.58-.68,91.6-16.7c19.59-12.54,27.94-20.77,49.12-52.75,16-24.19,26.72-58.22,27.92-91.17C414.28,103.23,404.59,58,372.23,26.94Z"/></g><g id="Shadow"><ellipse class="cls-6" cx="197.72" cy="328.62" rx="187.15" ry="11.13"/><ellipse class="cls-7" cx="197.72" cy="328.62" rx="187.15" ry="11.13"/></g><g id="Laptop"><path class="cls-8" d="M44.87,92.81H356.52A10.46,10.46,0,0,1,367,103.26V308.67a0,0,0,0,1,0,0H34.42a0,0,0,0,1,0,0V103.26A10.46,10.46,0,0,1,44.87,92.81Z"/><rect class="cls-9" x="47.91" y="109.67" width="305.58" height="172.69"/><g class="cls-10"><polygon class="cls-11" points="353.49 282.36 353.49 134.96 100.72 282.36 353.49 282.36"/></g><rect class="cls-12" x="47.91" y="109.67" width="305.58" height="172.69"/><rect class="cls-13" x="87.18" y="298.28" width="228.55" height="11.26"/><rect class="cls-13" x="87.18" y="303.7" width="228.55" height="5.84"/><path class="cls-13" d="M7.52,316.21s3.76,4.59,15,8.34H380.38s8.34-2.08,12.1-7.92Z"/><rect class="cls-13" x="195.64" y="119.11" width="8.77" height="386.53" rx="2.7" transform="translate(512.4 112.35) rotate(90)"/><circle class="cls-14" cx="200.63" cy="99.33" r="2.92"/><path class="cls-14" d="M163.51,95h0a1.46,1.46,0,0,0-1.46-1.46h-73A1.46,1.46,0,0,0,87.6,95h0a1.46,1.46,0,0,0,1.46,1.46h73A1.47,1.47,0,0,0,163.51,95Z"/><path class="cls-14" d="M312.4,95h0a1.46,1.46,0,0,0-1.46-1.46H238A1.46,1.46,0,0,0,236.49,95h0A1.47,1.47,0,0,0,238,96.42h73A1.46,1.46,0,0,0,312.4,95Z"/><path class="cls-14" d="M365,152.72V128.53a.83.83,0,0,0-.83-.83h0a.84.84,0,0,0-.84.83v24.19a.84.84,0,0,0,.84.83h0A.83.83,0,0,0,365,152.72Z"/><path class="cls-14" d="M38.39,152.72V128.53a.84.84,0,0,0-.84-.83h0a.83.83,0,0,0-.83.83v24.19a.83.83,0,0,0,.83.83h0A.84.84,0,0,0,38.39,152.72Z"/></g><g id="Mobile"><rect class="cls-5" x="102.68" y="179.24" width="76.74" height="144.96" rx="7.67"/><rect class="cls-9" x="106.09" y="195.16" width="69.92" height="113.13"/><g class="cls-15"><polygon class="cls-11" points="176.01 270.27 110.83 308.28 176.01 308.28 176.01 270.27"/></g><rect class="cls-16" x="106.09" y="195.16" width="69.92" height="113.13"/><path class="cls-14" d="M148.65,187.24h-15.2a1,1,0,0,1-1-1h0a1,1,0,0,1,1-1h15.2a1,1,0,0,1,1,1h0A1,1,0,0,1,148.65,187.24Z"/><path class="cls-17" d="M148.65,187.24h-15.2a1,1,0,0,1-1-1h0a1,1,0,0,1,1-1h15.2a1,1,0,0,1,1,1h0A1,1,0,0,1,148.65,187.24Z"/><path class="cls-14" d="M145.2,314.67a4.15,4.15,0,1,0-4.15,4.15A4.14,4.14,0,0,0,145.2,314.67Z"/></g><g id="Tablet"><rect class="cls-18" x="217.96" y="163.03" width="111.83" height="211.23" rx="11.18" transform="translate(542.51 -5.23) rotate(90)"/><rect class="cls-9" x="222.93" y="174.28" width="101.89" height="188.71" transform="translate(542.51 -5.23) rotate(90)"/><g class="cls-19"><polygon class="cls-11" points="368.23 238.16 228.6 319.58 368.23 319.58 368.23 238.16"/></g><rect class="cls-20" x="222.93" y="174.28" width="101.89" height="188.71" transform="translate(542.51 -5.23) rotate(90)"/><path class="cls-14" d="M373.34,270.17a1.54,1.54,0,1,1,1.54-1.53A1.53,1.53,0,0,1,373.34,270.17Z"/><rect class="cls-21" x="345.6" y="212.73" width="7.49" height="1.02" rx="0.37" transform="translate(698.69 426.47) rotate(180)"/><path class="cls-21" d="M322.13,213.75h12.93a.51.51,0,0,0,.52-.51h0a.51.51,0,0,0-.52-.51H322.13a.51.51,0,0,0-.51.51h0A.51.51,0,0,0,322.13,213.75Z"/></g></g></g></svg>