<svg xmlns="http://www.w3.org/2000/svg" viewBox="0 0 205.09 192.12"><defs><style>.cls-1{fill:#3c4547;}.cls-2{fill:#fcfff8;}.cls-3{fill:#1a1e24;}.cls-4{fill:none;stroke:#1a1e24;stroke-miterlimit:10.15;}</style></defs><g id="Capa_2" data-name="Capa 2"><g id="Capa_1-2" data-name="Capa 1"><g id="Layer_2" data-name="Layer 2"><path class="cls-1" d="M32,37.17l-.25.4a1.59,1.59,0,0,1,.57-.14C32.28,37.19,32.15,37.16,32,37.17Z"/><path class="cls-1" d="M31,40.48c-.21-.65-.44-1.21.34-1.34.33,0,.52-.35.76-.59s.06-.39,0-.62l-.6.29a.54.54,0,0,1,0-.18c-.4.68-.79,1.35-1.17,2A7.48,7.48,0,0,0,31,40.48Z"/><path class="cls-1" d="M47.4,125.27l.8-4.24a15.35,15.35,0,0,0,.36-1.89,11.17,11.17,0,0,0-.2-1.63,5,5,0,0,0-.18-1.44c-.19-.3-.82-.57-1.09-.76l-1.64-1.13a3.23,3.23,0,0,1-1-1.41l-2-3.76-1.66-3.11c-.34-.64.24-1.81.4-2.47a4.55,4.55,0,0,1,.32-1.32l1-1.22c.7-.9,1.31-1.42,1.12-2.7,0-.29-.21-.45,0-.66a1.61,1.61,0,0,1,0-.59c.1-.39-.77-.74-.68-1.12s.1-.4-.29-.63-.27-.14-.56,0a3.51,3.51,0,0,0-.56.46c-.1.09.19.42.25.53-.55.23-.52.29-.77-.3-.12.33-.66-.22-1-.28s-.26.15-.36.08l-.5-.37a5.16,5.16,0,0,1-1.25-1c-.23-.36-.1-.79-.36-1.08-.63-.74-1-1.4-1.93-1.66-.7-.19-1.86-.24-2.41-.78l-1.45-1.43c-.32-.32-.76,0-1.14.13-.85.26-1.73-.35-2.55-.69l-2-.8a2.52,2.52,0,0,1-.76-.32l-1.29-1.32c-.39-.4-.16-.63,0-1.2.11-.37-.57-1.09-.76-1.38A4.18,4.18,0,0,0,22.5,83l-1.39-1.28c-.1-.11,0-.4.05-.53s-.22-.37-.3-.47l-.29-.36a25,25,0,0,0,.14,2.6c.18.16.39.41.36.62s-.17.34-.3.32a77.55,77.55,0,0,0,24.94,51.23c.09-1,.2-1.91.37-2.85Z"/><path class="cls-1" d="M43.13,66.29c.49.46,1.54-.44,1-.65l.45-.39c-.3.12-.94.61-1.16.52-.38-.17-.87.06-1.28.15C41.34,67,42.82,66,43.13,66.29Z"/><path class="cls-1" d="M41.1,67a.82.82,0,0,0-.8.29c-.22.2-.37.41-.67.26a.53.53,0,0,1,.41-.4c-.11-.16-.13,0-.19-.26a5.37,5.37,0,0,0-.59.9l.47.13-.1.14c.64.06.91-.25,1.46-.45a5.59,5.59,0,0,0,1.38-.8c0-.16,0-.24-.1-.34C42.34,66.78,41.37,67,41.1,67Z"/><path class="cls-1" d="M29.42,57.68v.22a.27.27,0,0,0,.07-.13c.22.08.16.38.13.6.06-.13.18-.26.33-.19s-.09.34-.12.46a1.13,1.13,0,0,1,.27-.13.75.75,0,0,0-.23.86c.09.3.28-.06.27-.23a.2.2,0,0,1,.18.07c-.12-.27.1-.57-.08-.73a2.29,2.29,0,0,1-.39-.78c-.14-.36-.84-1.89-.53-2h-.07c-.1.12-.12.1-.27.13a.41.41,0,0,1,.29-.32l-.16-.13c-.22.4-.22.52.1.76-.25-.11-.72-.36-.82,0-.18.67-.07.53.42.67-.57.12.13.8.27,1.08l.19.11C29.27,57.64,29.24,57.77,29.42,57.68Z"/><path class="cls-1" d="M175,85.64c0,.22,0,.65-.33.46-.1,0-.21-.55-.26-.68.12,0,.23-.12.35-.15a1.27,1.27,0,0,0-1.47-.18c-.35.28-1.22.71-1.37,1.18,0,.14-.32.76-.25.89l.64,1c.3.49.68.92,1,1.38A2.37,2.37,0,0,1,174,91c0,.45.27,1.5-.06,1.8a34.94,34.94,0,0,1-2.86,2.43c-.34-.35.13-.86-.11-1.11l-1-1a2.41,2.41,0,0,0-1.8-1l.07-.57c-.76,0-.62.13-.68,1a5.43,5.43,0,0,1-.46,1.43,1.67,1.67,0,0,0,0,.63c0,.4,0,.33.41.31.19,0,.42,1.21.48,1.43s.84.71,1.12.92a3.22,3.22,0,0,1,.82.94c.18.43,0,1,.09,1.51a12.14,12.14,0,0,0,.52,1.3,3.56,3.56,0,0,1-1.56-.93,1.92,1.92,0,0,1-.73-1.25,6.21,6.21,0,0,0-.59-1.78l-1.36-1.47c-.2-.22.08-1.43.12-1.77a12.77,12.77,0,0,0-.12-2,14.62,14.62,0,0,0-.84-3.45l-.73.91c-.32.38-.29.37-.76.26s-.45-.07-.37-.61c0-.23.22-.84.13-1A4.3,4.3,0,0,0,162.65,86a4.55,4.55,0,0,1-1-1.84c-.27.19-.66.61-1,.65l-1.7.23c-.07,0-.44,0-.49.08s.07.49,0,.6l-.84.87L155.2,89a4,4,0,0,1-1.13.57c-.43.2-.27.52-.27,1a6,6,0,0,1,0,1.47c-.1.38-.41,1-.31,1.39a2.72,2.72,0,0,0,.64,1.37,4.87,4.87,0,0,1,.72,1.35c.38.9-1.15,1.69-1.26.48a10.55,10.55,0,0,1,0-1.59c0-.52-.17-.61-.53-1,0,.37,0,.75-.27,1l-1,.63c-.89-1.69-1.65-3.45-2.43-5.21a7.91,7.91,0,0,1-.65-1.49,5.92,5.92,0,0,1,0-1.19c0-1.13-.07-2.25-.1-3.38l-.71,1c-.24.33-.27.28-.66.27s-1-.86-1.27-1.19c.31-.07,1,0,1-.47a2.71,2.71,0,0,1-.57,0,6.82,6.82,0,0,1-1.39-.79c-.28-.16-.47-.91-.62-1.22s-2.54.19-2.95.24a8.23,8.23,0,0,1-2.65-.44c-.38-.09-.82,0-1-.44-.36-.69-.27-.89-1-.64a2.53,2.53,0,0,1-1.54,0c-.38-.06-.62-.53-1-.69a1.5,1.5,0,0,1-1-1c-.2-.44-.28-1-.75-1.08-.8-.11-.79-.08-1.35.57-.18.22.48,1,.62,1.27.5.83.92,1.71,1.37,2.57.06-.38.12-.78.19-1.16a3.78,3.78,0,0,1,.29,1.85,5,5,0,0,0,2-.26,9,9,0,0,0,1.41-1.61c0,.48-.08,1.29.32,1.56a5.4,5.4,0,0,0,.74.51c.24.1.5,0,.63.26s.26.68.46.71.2.31.18.66-.76,1-1,1.24c0-.11-.11-.22-.13-.33a2.39,2.39,0,0,0-.3,1.14c0,.43-.16.38-.52.55l-1.09.53c-.22.1-.22.71-.42.81s-.44-.14-.62-.06l-.8.35c-.37.17-.32.66-.65.79l-1.82.65c-.18.06-.21.16-.32.33s-.34.2-.58.25c-.53.11-1,.28-1.55.41s-.46.54-.89.54c-.65,0-.71.14-.83-.53l-.38-2a8.13,8.13,0,0,0-1.26-2.68c-.33-.54-.38-.64-.94-.85-.32-.12-.31-1.11-.38-1.44a5.74,5.74,0,0,0-.65-1.45c-.14-.28-.46-.41-.63-.71l-1.09-1.94c-.18-.32-.31-.88-.74-.76a9.87,9.87,0,0,1,.16-1.2l-.46,1.43a6.47,6.47,0,0,1-1.18-1.79c-.39.49.29,1.3.52,1.74l1.33,2.71c.26.54.17,1.15.55,1.57.18.18.59.48.63.74l.22,1.37a1.76,1.76,0,0,0,.21,1,5,5,0,0,1,.81.78,11.57,11.57,0,0,1,.78,2.13c.09.22.72.19.89.38l.74.86c.4.48,1.24,1,.6,1.62.43.13.9,1,1.25.94l3.55-1c.22-.06.85-.32,1,0s-.3,1.33-.35,1.58a12.18,12.18,0,0,1-1.35,2.67,9.6,9.6,0,0,1-1.24,2,26.48,26.48,0,0,0-4.17,4.73c-.25.4-1.77,2.48-1.53,2.86a1.78,1.78,0,0,1,.39,1.55,1.43,1.43,0,0,0,.42,1.33c.64.87.42,2.22.47,3.31a2.46,2.46,0,0,1-1.26,2,4.51,4.51,0,0,0-1.38.66L122.38,117c-.32.36-.7.54-.5,1,.13.32.62,1,.58,1.4a5.35,5.35,0,0,1-.18,1.69c-.19.29-1.08.52-1.38.66-.51.24-.4.46-.45,1.08a4.73,4.73,0,0,1-.15,1.5,26.11,26.11,0,0,1-1.83,2.58,15,15,0,0,1-1.22,1c-.22.19-.67.76-1,.82l-3.18.67-1.46.31c-.23,0-.71-.57-.88-.74-.58-.51-.56-.5-.47-1.34a4.2,4.2,0,0,0-.44-1.16l-.74-1.85c-.14-.37-.6-.65-.87-.91s-.18-1-.21-1.29l-.33-2.11a8.54,8.54,0,0,0-1-2.53l-.81-1.65a1.46,1.46,0,0,1,.08-.94,9.43,9.43,0,0,1,.79-3.38c.57-1,.22-1.8,0-2.83l-.71-3.34c-.08-.35-.53-.74-.73-1l-1.15-1.53c-.2-.27-.06-.63,0-1l.24-2.1c.08-.7.11-.64-.24-1.11s-.38-.6-1-.56c-.36,0-1.08.25-1.34-.07L100.73,97a7.76,7.76,0,0,0-2.67.3l-1.58.81c-.42.21-.6.1-1,0A1.8,1.8,0,0,0,94.23,98l-1.73.6c-.28.11-.59-.27-.8-.43L90,96.92a4.09,4.09,0,0,1-1.48-1.5l-2.12-3.69-.68-1.18c-.1-.19.27-.88.33-1s.49-.92.41-1.28c-.13-.59-.27-1.17-.4-1.75A5.59,5.59,0,0,1,85.76,85a3.53,3.53,0,0,1,.44-.81l2-3.69a4.43,4.43,0,0,1,1.87-1.64c.43-.27.62-.27.69-.8l.3-2c.12-.77,1.64-.9,1.94-1.65.21-.52.3-1.25.82-1.39.13,0,.52.67.94.58.18,0,.62-.24.8-.14s.49.35.58.29a13.23,13.23,0,0,1,1.25-.74A9.94,9.94,0,0,1,100,72.2a2.76,2.76,0,0,1,.81-.09,2.08,2.08,0,0,0,.65.22c.21,0,.43-.27.64-.31a3,3,0,0,1,.6,0,2.2,2.2,0,0,0,1.47-.17c.41-.24.78.08,1.2.25-.31.68-.38.71,0,1.36.16.3-.47.75-.67,1,.33.3.75.85,1.16,1L108,76c.55.15.4.76.95,1s.94.13,1.39.44c.63.45,1,.56,1.37-.24.09-.19-.21-.48-.11-.65s.24-.59.4-.63a2.7,2.7,0,0,1,1.75-.12c.15,0,0,.36.21.4l1,.21c.26,0,.27.18.41.44s.32-.16.43-.13l1.58.47a1.18,1.18,0,0,0,1.19-.1c.6-.3.66-.39,1.26-.1a1.52,1.52,0,0,0,2.08-.56l.06-.11c.21-.56,1.19-2.31.81-2.88-.25-.36.29-1.13.16-1.28s-.35.1-.47.2-.34-.19-.5-.15-.36.45-.55.54a2.3,2.3,0,0,1-.74,0c-.45,0-.65-.46-1-.54s-.51-.22-.61.09-.12.34-.48.41-.91-.41-1.19-.58c-.52-.29-1.42-1.79-.86-2.42l-.56.06c-.08-.62.73-.78,1-.79a2.68,2.68,0,0,0,1.54-.35L118,68.4c.12-.31.76-.17,1-.13.54.08.57-.07,1-.36a2,2,0,0,1,1-.44,2.93,2.93,0,0,0,1.25,0c-.1.18.07.34.26.43s.18-.25.49.17c.11.16.92.28,1.19.39.44.17.72-.09,1.16,0a1.82,1.82,0,0,0,1.29-.41c.36-.22.17-.85-.06-1.1s-.71-.43-1-.75-.66-.8-1.16-.86a3.6,3.6,0,0,1-.5-.29c-.2-.13-.38-.3-.58-.44l.17-.22.54.11c-.17-.59.22-.77.64-.76-.2-.17-.47-.33-.58-.57h.54c-.13-.41.42-.11.5-.36s-.34-.18-.48-.16a1.74,1.74,0,0,0-1.26.51V63a1.94,1.94,0,0,0-1.1.58l.09-.2c-.52-.06-.28.59-.07.84s.68.15,1.11.15c-.31.55-.65.14-1,.31s-1,.81-1.41.5c.23-.64-.07-.56-.6-.81.26-.14,1.28-.51.59-.74a2,2,0,0,0-.69,0c-.16,0-.39-.24-.52-.34.29,0,.64.18.78-.15-.3.15-1.07-.2-1.26,0s-.79.68-.83,1a2.34,2.34,0,0,1-.12.74c-.1.14-.5.12-.53.3-.11.56-.09,1-.54,1.26s-.33.8-.13,1.21.85.59.8.71c-.12.35-.76-.1-1,.12l-1,1c0-.38.18-.45.44-.61-.2-.09-.44-.1-.67-.19a8.68,8.68,0,0,0-.89-.14,1.63,1.63,0,0,0-.52.15c-.15.06,0,.33,0,.39-.28.23-.49,0-.73-.15-.26.29,0,.58.18.85s.26.38-.08.72c.44.3.91.42.82,1-.26-.21-.44-.45-.72-.11.35.06.37.28.13.47s-.13.32,0,.63c-.29-.06-.51,0-.63-.3s-.25-.19-.46,0c-.22-.78-.39-.85.21-1.33-.56,0-.56-.08-.88-.57a5.06,5.06,0,0,0-.57-1c-.44-.36-.27-.63-.22-1.22s-.14-.55-.55-.88A4.3,4.3,0,0,0,109,66.18c-.17,0-.57-.55-.63-.74a1.46,1.46,0,0,0-.62-1c-.18.56-.4.28-.48-.12s0-.3-.43-.18-.68.16-.42.64c.09.18-.24.57.06.81a3.85,3.85,0,0,1,.86.64c.19.27.16.69.41.91s.46.48.85.5.68,0,.29.31c.36.3,2.14,1,1.68,1.64-.18-.1-.7-.81-.9-.6a.79.79,0,0,0-.31.55c-.06.25.11.24.29.37.52.41-.35.52-.32.76s-.65,1-.64.4a.72.72,0,0,0-.25,1h0c.18.35-.53.47-.62.19-.15-.51-1.85-.45-1.18-1.19a3.18,3.18,0,0,0,2.11-.06c.22-.16,0-.31.26-.43s-.23-1.14-.35-1.16-.48,0-.45-.24a.27.27,0,0,0-.22-.32.27.27,0,0,0-.21,0c0-.24-.46-.61-.67-.59s-.56-.32-.83-.57c-.47-.46-1.1-.68-1.25-1.31s-.14-.63-.63-.88c-.25-.15-.57-.25-.76,0A6.69,6.69,0,0,1,102,66.65l-1.33-.43c-.22-.07-.58.4-.75.56s.17.77,0,1-.77.4-1,.52c-.72.37-.94,1-1.38,1.7-.13.22.44.43.16.78s-.59.59-.46.87c-.16,0-.53,0-.62.2s-.26.54-.4.56a10.59,10.59,0,0,1-1.38,0c-.4,0-.65.49-1,.59s-.81-.56-.46-.82c-.35.18-.53-.43-1-.17s-.62-.1-1,.14a2.7,2.7,0,0,0,.1-.8v-.44c0-.16-.16,0-.22-.05-.27-.42-.07-.52,0-1s.45-1.16.25-1.59a2.36,2.36,0,0,1,0-1.29c-.25.2-.41-.19-.31-.43s.57-.22.73-.25a1.18,1.18,0,0,0-.11-.19c.43-.39.64.15,1,0a1.82,1.82,0,0,1,1.26,0c.41.14.75-.08,1.12.07a2.3,2.3,0,0,0,1,.11c.72-.15.63-1.56.62-2.13s.09-.72-.42-.88c-.3-.09-.34-.62-.28-.78-.27.06-.17-.1-.28-.15s-.44-.07-.49-.11c-.22-.18-.3-.29-.57-.27a.38.38,0,0,1-.44-.22c.08,0,.15-.06.22-.07a.47.47,0,0,1-.3-.44,1.68,1.68,0,0,0,.91-.16c.55-.39.23.3.59.21.13,0,.81-.14.78-.32a2.83,2.83,0,0,0-.28-.85c.15,0,.42,0,.47.12s0,.23.25.26a1.54,1.54,0,0,0,1-.13c-.09,0-.18-.07-.28-.08a2.19,2.19,0,0,1,.88-.52c.42-.2,0-.49.18-.82.09-.15.74-.3.93-.39a1.55,1.55,0,0,1,.9-.11c-.12,0-.48-.08-.49-.23s.32-.06.36-.09,0-.23.07-.31a1.77,1.77,0,0,0,.35-.85c0-.18.34-.14.45-.27.37-.46.75-.2,1.2-.34.06,0,0-.23.11-.25l.37,0a1.88,1.88,0,0,1,.58.06c-.07-.36.24-.27.48-.3-.13,0-.51-.36-.33-.51s0-.23-.06-.54.09-.51-.18-.74-.17-.31-.18-.62c0-.52.08-1.1.62-1.12s.75-.46,1.14-.66c-.27.41-.41,1.26.19,1.41-.35.56-1,.74-.9,1.48.09.54.6,1,1.11.76l-.2.44c.49.3.92-.41,1.35-.47a.91.91,0,0,1,.62.41c.08.28.34.36.57.49a.66.66,0,0,0,0-.28h-.41c.3-.19,1.37-.21,1.58-.49a1.47,1.47,0,0,1,1.8-.35l-.31-.13c0,.47.65.53.89.24.09-.11.13-.38.19-.43s.18,0,.24-.06.37-.23.49-.41a1.32,1.32,0,0,1-.3.44c.78.38.31-1,.29-1.43a1,1,0,0,1,.23-.73c.17-.2,0-.51.31-.72.7-.51.87.63,1.39.67.28,0,.49-.39.45-.64s.11-.82.06-.85-.23.12-.29.08a2.42,2.42,0,0,1-.31-.33c-.08-.09-.23-.67-.14-.71a3.31,3.31,0,0,1,1.63-.46l1.2.15c.55.07.08-.13.4-.34s.52,0,.77-.21.56,0,.77.09c-.12-.38-.86-.51-1.18-.64,0-.09,0-.23.12-.31-1.12.21-2.27.49-3.41.71-.12,0-.59.19-.66.07a1.05,1.05,0,0,0-.65-.57c-.45-.18-.41-.14-.32-.66a1.79,1.79,0,0,0,0-.86,3.51,3.51,0,0,1-.27-1c0-.23.5-.57.65-.74.37-.42.85-.68,1.2-1.12.18-.21.46-.74.69-.86s.58.11.45-.34a1.12,1.12,0,0,0-1.14-.85c-.78,0-.84-.06-1.39.55-.35.38-.53.7-.25,1.19s-1.85,1.53-2,1.76c-.52.67-1.42,1.73-.85,2.71.25.43,1,.41,1.17.89s-.43.64-.68.87c-.44.37-.78.52-.86,1.12a7,7,0,0,1-.25,1.64c-.26.61-.71.61-1.24.72-.2,0-.19.29-.25.51s-.22.18-.46.19-.4.11-.46-.3a1.72,1.72,0,0,1-.07-.75c.15-.42-.46-.93-.7-1.27-.11-.14,0-.4-.13-.56a3.43,3.43,0,0,1-.32-.67c0-.22.14-.6-.1-.65s-.25-.42-.32-.63c-.15.58-.26.63-.71,1s-.57.58-.9.78c-.51.31-1.8.16-1.82-.64,0-1-.4-1.89-.35-2.86s.1-.83.7-1.34a5.51,5.51,0,0,1,1.07-.64,3.53,3.53,0,0,0,1.23-.78,9.73,9.73,0,0,1,1-1,11.31,11.31,0,0,0,1.63-2.48,16.39,16.39,0,0,1,1.9-2.25,6.79,6.79,0,0,1,2.1-1.93,22.28,22.28,0,0,1,2.92-1.08c.39-.11.58-.74.94-.94A2.08,2.08,0,0,1,116,35a2.91,2.91,0,0,0-.86,1.46c.44-.09.81-.82,1.1-1.17,0,.22.09.44.13.66l.59-.79c.08-.11.59,0,.73,0l-.37.61c.52.39.23-.57.65-.41l1.34.53c.38.15-.32.5-.46.54a4.07,4.07,0,0,1-1.1-.11c.17.31.52.2.66.55,0,.09.49,0,.65,0,.39,0,.75.21,1-.14.12-.16.59.19.77.27-.1.36-.43.14-.68.06-.12.75,1.16.46,1.51.47a3.18,3.18,0,0,1,1.69.58,9,9,0,0,0,1.78.84,2,2,0,0,1,1.32,1c.18.56.15.55-.15,1-.2.3-.26.48-.57.59a2.32,2.32,0,0,1-1.64.1,14.77,14.77,0,0,1-3.59-1.22c.36.36,1.37,1,1.37,1.57s-.09,1.62.4,1.84,1.27.87,1.8.64c.32-.13.16-.64-.16-.64s-.45-.3-.67-.57c.51-.46.54-.36,1.16-.15l1.51.53a6.63,6.63,0,0,1-.38-1.14l1.13-.77c.21-.13.57-.51.81-.44l1.2.35c.05-.22.25-.65.16-.87,0-.06-.41-.7-.43-.62.09-.37.18-.74.26-1.11,0-.13-.39-.51-.49-.62l1.46.19c.36,0,.61.6.83.9-.25,0-1,0-1.08.18s.19.6.41.91.63.12,1,.06.14-.41.38-.73c.11-.15.53-.25.69-.32l1.32-.6,2-.91c.19.63.19.63.77.77.39.09.58-.62.91-.59a1.83,1.83,0,0,0,1.24-.08,1.42,1.42,0,0,1,1.22-.1l-.25.45c.62.18.58.21,1-.34s.13-.55-.24-1a4.25,4.25,0,0,1,3,.11l1.8.71A7.1,7.1,0,0,1,146,39c0-.22.25-1,.07-1.11l-1.32-1c-.3-.21.17-.83.3-1.12s-.57-.51-.77-.64l1.3-1c.3-.23.42-1.09.54-1.45s2.22,0,2.7.07l-.56,1.52c-.1.27.36.88.47,1.13.21.45-.5,2.44-.14,2.68s.9.33.68.87c-.14.3-.28,1-.55,1.17l-1.4.85c-.21.13-.84-.09-1.08-.12a2.18,2.18,0,0,0,2,.65,6.28,6.28,0,0,0,1.83-1.57c.53-.54-.83-1.34.28-1.69.22-.06.82-.39,1-.19l.85,1c-.06-.42,0-.84-.36-1.08a1,1,0,0,0-1-.25c-.13,0-1.22.27-1.25.17-.08-.3-.35-.84-.22-1.12s.58-.83.34-1.19-.78-.84-.57-1.16a2.23,2.23,0,0,1,1.1-.66c.44-.18,0-.89,0-1.08.23-.06.7.58.56.84-.33.62-.29.61,0,1.22.23.42,1.94.42,2.37.46a19.32,19.32,0,0,1-1.82-.75c-.7-.33.51-.85.78-.94a2.5,2.5,0,0,1,2,.26,4.48,4.48,0,0,1,.72.44c.22.15.54,0,.8,0a3.25,3.25,0,0,0-.33-.9c-.17-.15-.75-.12-1-.16s-.33-1.29-.39-1.61l2.81-.28,1.58-.16c.36,0,.21-.41.22-.77,0-.69,0-.7.5-1h0A77.79,77.79,0,0,0,51,16a3.23,3.23,0,0,1,1.16,0,15.7,15.7,0,0,1,2.63.71,7.53,7.53,0,0,1-2.28,1.15l-3,.23,1.37.23-2.35.7,3.86-.78c0,.63-1.73,1-2.25,1.39a5.48,5.48,0,0,1-1.35.82l-1.51.3h.94a2.75,2.75,0,0,1-1,.77c-.3.15-.71-.07-1-.16l.15.47c-.83.16-1.66.25-2.49.35h0c.47,0,1.61-.1,1.51.44H43.94c.35.09,1.44.13,1.39.65l-1.25.16.71.39a1.46,1.46,0,0,1-.94.7c-.26.09-.81-.28-1-.15s.46.36,0,.72c-.14.12-.89.67-.74.9s.19.18.45,0,.27,0,.51.1.11.42.12.57-.33.18-.43.22-.27-.15-.31-.13-.19.28-.31.33l-1.25.37c.1-.36.22-.48-.08-.72s-.35.25-.65-.08c0,.46-.44.35-.7.11l-1,1.24h.1c.4-.14.71,0,1.08-.07a2.53,2.53,0,0,1,2.37.73l-.52.39a1,1,0,0,1,.61.24c-.37.12-.51.09-.63.5,0,.18-.85.2-1,.23a1.5,1.5,0,0,1-.78-.15c-.33-.11-.08-.61-.53-.6a3.26,3.26,0,0,0,.09.53c-.32,0-1,.35-1.1-.12-.12.46-.71.34-.94,0V30h-.32c-.4.51-.79,1-1.17,1.54a2,2,0,0,1,.47-.28,3.1,3.1,0,0,1,2-.24l-.15.61a8.5,8.5,0,0,0,1.61-.55,2,2,0,0,1,.78,0c.29,0,.22.4.39.63s.3.2.45.51.16.46-.07.89.1.35.31.15c.39-.39.35-.37.81-.09.13.07.49-.39.6-.5s.63-.11.85-.14a2.24,2.24,0,0,1,1.45.57c.26.25.91,1.28,1.18,1.18.44-.16,1.25-.25,1.45.39-.16.09-.84.4-.78.58.15.43.66.08.8-.24s1.66.55,2,.71c-.13.41-.69.41-1,.52.27,0,.56,0,.46.38.27-.14.66-.21.72-.6.25.17.65.35.65.73a1.35,1.35,0,0,0-1,.28,1.51,1.51,0,0,0,.72.18c.46-.08.43-.1.6.38L50,37.43l.09.6-.64.08c.75.34,1.5.63,2.28.92a1.73,1.73,0,0,1,.77.57c.32.36.53.34,1,.41l-.3.47a3.18,3.18,0,0,1,1.15,0c.48.2.3.5.24,1-.24,0-.6-.2-.75,0l.53.26c-.53.29-.75.57-1.26.21a3.13,3.13,0,0,1,0,1.22,3.35,3.35,0,0,1-1.37-1.1c.27-.12.69-.16.56-.6-.17.06-.55.3-.73.26s-.45-.49-.68-.61-.44-.18-.6.06.19.32.21.71L50,41.82l.19.59c.3-.11.37-.25.48.09l.27.85c.09-.45.31-.25.58-.12s.3.24.38.64.35.22.5.46a3.33,3.33,0,0,1,.13.94l-.36-.47c-.21.38.33.48.16.86a.34.34,0,0,1-.26-.08l.16.44c-.15,0-.55-.48-.78-.62l-1.29-.81c.06.11.06.25.12.36l-.75-.33.43.74c.1.18.5.14.66.25l.78.56c.25.18.15.3.11.65l-2.11-.55c-.25-.06-.24-.38-.4-.42l-1.07-.28.12-.18a1.51,1.51,0,0,1-.89-.34l.57-.28c-.33-.18-.71-.14-.9-.46-.36-.56-.35-.9-.91-.54,0-.24-.13-.36-.36-.33,0,.1-.06.23,0,.33-.32-.08-.67-.28-.93,0s-.7.18-1,.2-.6-.44-.48-.66.63-.39.57-.74a4.47,4.47,0,0,0,1.63.12,2.77,2.77,0,0,0,1-.28c.11-.12-.45-.54-.58-.65L47,40.45c.11-.12.31-.21.22-.37l-.55-1c-.28-.51-.86-.38-1.13-.84s-.17-.32-.52-.18l-.81.3c0-.68.13-.57.7-.75-.31-.26-1-1.15-1.39-.75a2.73,2.73,0,0,0-.11-.54c0-.18-.32,0-.43,0-.33-.15-.29-.81-.73-.38.35.1.4.28.56.63a3.85,3.85,0,0,1-2.22-.24l.64.6c-.28.1-.35-.26-.61-.28-.09,0-.16.26-.26.22l-.52-.2a6,6,0,0,0-1.74-.1,1.78,1.78,0,0,1-.78-.21c-.31-.28.1-.44-.46-.39-.26,0-.4.26-.71.09a2.42,2.42,0,0,1-1-1l1.65.14c-.54-.59-1-.51-1.8-.58-.08,0-.16-.82-.18-.94a4.48,4.48,0,0,1,.38-1v-.08c-.72,1-1.41,2-2.09,3,.22.26.52.5.67.69l-.95.64c.31.13.56.34.86.14s.56,0,.86.2l-.46.31c.31.27.47.27.37.68s-.16.5.19.73a1.6,1.6,0,0,0,.38-.86c0-.15.14-.75.4-.59s.76.33.81.54.3.76-.14.9v-.26c-.89.5,1.1,2.27,1.18,1.31,0-.27,0-.44.18-.61s.4-.26.4-.42c0-.72,0-.68.62-1-.24-.38-.47-.57-.38-1s.35-.34.74-.28,1,0,1.16.23a1.31,1.31,0,0,0,1,.57c-.21.38.12.62-.1.89s-.6.1-.81.12a2.91,2.91,0,0,0,.61,1c.33.31.47.54.12,1a4.3,4.3,0,0,1-1.1.68c-.31.18-.52-.22-.76-.44l.36.84-.58-.3a.3.3,0,0,0,.07.23l-.59-.14c-.13,0,0-.36-.16-.36s-.71-.12-.86.23l.55.32a2.43,2.43,0,0,1-.66.83c-.44.24-.59,0-1-.21a4.51,4.51,0,0,0-2.09-.36l1.62.81a5.2,5.2,0,0,0,1.47.18c-.17.3-.46,1.09-.74,1.22s-.4.25-.57.24-.45-.1-.64,0c-.59.42-.64.45-1.31.25-.43-.13-.85-.24-1.28-.35l.85.39c-.06.05-.1.13-.16.18a.94.94,0,0,1,.93.12c.22.12.55.44.19.6a1.63,1.63,0,0,1-1,.16c-.13,0-.35.48-.42.58a6.14,6.14,0,0,0-1,1.77c-.15.73-.3,1.47-.46,2.21.3.07.95.07,1.16.27A6.07,6.07,0,0,1,33.05,52c.21.59.34.37.92.25.31-.07.64.14.93.24a8.55,8.55,0,0,1,2.23,1.14c.24.17.7.67,1,.7l1.28.14c.16,0,1,0,1,.18,0,.6,0,1.19-.07,1.78,0,.82.79,1.45,1.27,2s1.46-.5,1.38-1l-.27-1.59c0-.28-.41-.65-.57-.89.52-.34,1.53-.71,1.89-1.23a2.2,2.2,0,0,0,0-2.14,6.44,6.44,0,0,1-.8-.85c-.33-.46-.44-.43,0-.8s.49-.36.32-1c-.09-.32-.29-.72-.19-1a1.58,1.58,0,0,0,0-1.31c-.11-.38.12-.5.51-.55.7-.09,1.35.53,2,.2.44-.2.56,0,1,.32.2.14.74.37.8.64s.32.69.76.62a1.39,1.39,0,0,1,.9.27c-.18.31-.3.41-.23.76a1.77,1.77,0,0,1,0,1h.28c-.17.21-.66.55-.4.8.45-1.34,2,1.58,2.41-.23.07.09.21.1.28.18.19-.39.48-.76.4-1.19s.39-.9.69-.83c0,.16-.08.32-.11.48.7,0,1.17,1.48,1.5,2,.18.33.75,1,.77,1.33s-.34.48-.3.67.36.3.43.36a2.35,2.35,0,0,1,.58.46c.13.21-.08.44.21.45a1.9,1.9,0,0,1,1.2.35c.31.21.92.49.25.6a7.05,7.05,0,0,0-1.11.32c.22.08.52-.08.76-.15-.16.29-.69.32-1,.41s-.2.67,0,.47a.71.71,0,0,1,.43-.27c.18-.06.11-.16.22-.23a2.13,2.13,0,0,1,.86-.24.44.44,0,0,1-.32-.17c.22,0,.63,0,.72.27s-.24.31,0,.56c.25-.45.53-.21.92-.09s.07.68,0,.85c-.12.34.26.45,0,.83a2.3,2.3,0,0,1-.83.51,8.31,8.31,0,0,0-.92.12,1.61,1.61,0,0,0-.71.58,1.64,1.64,0,0,1-1.67.56,13.59,13.59,0,0,0-2.21,0c-.65,0-1.35-.18-1.53.7,0,.23-.69.3-.87.43a5.18,5.18,0,0,0-.78.84A10.29,10.29,0,0,1,48,63.11c.89-.44,1.37-1.38,2.26-1.81.61-.29,2.28-1.23,2.71-.13a.51.51,0,0,1-.22-.09c.45.3-.16.53-.39.73s-.52-.19-.86,0c.13,0,.46.4.48.4a.91.91,0,0,1,.61,0,1,1,0,0,1-.41.63h.34c-.18.46.32.84.68.93l-.13.09c.52.26,1,.47,1.48.13v.25a.8.8,0,0,0,.3-.09c-.3-.4.32-1,.53-1.3.4.15.17.5.08.82.29-.23.72.22.47.33a1.76,1.76,0,0,1-1,.29c.08.07.12.19.21.26l-1.27.52a1.58,1.58,0,0,0-.47.23c-.18.17-.23-.21-.39-.08s-.54.68-.85,1-.42-.08-.54-.14c-.44-.63.63-1.18,1-1.45s.13,0,.25.15.39-.09.61-.28c-.28,0-.64-.11-.88.06a1.07,1.07,0,0,1,.23-.45c-.33-.09-.75.34-1,.52s-.18-.14-.39.1-.34,0-.49,0c.22.69-.94.44-1.1.76l-.15-.15c-.18.37-.34.41-.69.54s-.23.26-.33.51-.8,1.57.1,1.48l-.07-.17a.79.79,0,0,1,.19.22c-.26.19-.59,0-.87,0s-.09.39-.3.4a2.63,2.63,0,0,0-1.54.46c.41,0,.74-.25,1.14-.31l-.13.1h.33a1.83,1.83,0,0,1-.78.31c-.25,0-.7-.08-.84.19.62.07-.28,1.25-.5,1.44.14-.25-.29-.43-.39-.73,0,.36.47.85.31,1.19a7.37,7.37,0,0,0-.56,1.08h-.07a2.12,2.12,0,0,1,.21-.69c-.16-.1-.08-.42-.4-.33a2.89,2.89,0,0,1,.16-.72s.22-.51,0-.35c-.53.39-.36.63-.22,1.28a1.37,1.37,0,0,0-.51-.26c.13.19.46.25.56.44s-.11.58-.07.72.43.13.33.56-.29.32-.59.42c.27,0,.72-.09.65.3,0,.17-.57.18-.71.2.08,0,.14.12.23.17-.13,0-.19.12-.34.12.13.31.32,0,.53.15l-.45.25c-.11.06-.27-.14-.36-.07a6,6,0,0,0-.49.71c-.13.18-.41.07-.58.28a2.17,2.17,0,0,1-.49.56,2.38,2.38,0,0,0-1.21,1.39,1.91,1.91,0,0,0,.11,1.39,14.1,14.1,0,0,1,.71,1.91c.1.35.19,1.28-.06,1.53s-.36.46-.59.13c-.07-.1-.49-.48-.5-.51a5.51,5.51,0,0,0-.31-.76c-.13-.27-.27-.43-.19-.77l-.15.13c-.12-.42.26-1-.15-1.32s-.57-.76-1-.61c-.23.08-.48.25-.7.1a2.77,2.77,0,0,0-.67-.44c-.38-.1-1,.41-1.14-.24-.07.56-1.34.16-1.71.45.27,0,1.23.15.51.5a1.13,1.13,0,0,1,.49.24.23.23,0,0,1-.16.26.21.21,0,0,1-.11,0c.1-.27-.28-.37-.47-.48v.39c-.18-.37-.34,0-.57-.17s-.44-.43-.78-.31-.48-.12-.66-.19c-.36-.14-.93.27-1.27.41-.56.24-1.91,1.23-1.91,2,0,.25.32.5.34.75a2.13,2.13,0,0,1-.17.61,5,5,0,0,0-.31,1.36,4.92,4.92,0,0,0,.8,3c.37.57.52,1,1.14,1.14.13,0,.33.37.43.33l.76-.29a2.75,2.75,0,0,1,.69-.15c.19,0,.33.23.43.19a1.37,1.37,0,0,0,.32-.16c.06,0-.09-.2,0-.28a1,1,0,0,0,.42-.57c.14-.5.1-1.07.62-1.28a4.05,4.05,0,0,1,1.15-.23c.29,0,1.13-.14.87.5-.1.25-.45,1-.63,1,.09,0,0,.14.25.14-.08.07-.14.16-.22.22v0l.12-.08a4.69,4.69,0,0,0-.24.91.58.58,0,0,1-.15-.53,2,2,0,0,0-.21.35c.4,0-.06.77.07,1s-.3.72-.47.88a9.79,9.79,0,0,0,1.71.15c.24,0,.41-.19.65-.15a3.74,3.74,0,0,1,.87.13,1.06,1.06,0,0,1,.76,1.19l-.19,1.16c0,.22-.22.43-.25.64-.13,1,1.15,2.77,2.1,2.38.59-.25.89-.49,1.51-.3a2.57,2.57,0,0,1,1.28,1c0-.75.9-1.76,1.25-2.36.11-.18.8-.29,1-.36l1.51-.54c.45-.16,1.29.23,1.74.34l3.58.83A3.59,3.59,0,0,1,55,94.5l2.78,2.67c.59.56,1.87.58,2.61.77s1.25,1.33,1.69,1.9l1.34,1.76c.1.14.34.61.52.67l2.87,1,2.87,1A12.19,12.19,0,0,1,72,106c.14,0,1,0,1,.13.09.42.2.85.29,1.27.22.93.24.91-.27,1.65l-1.87,2.7a2.62,2.62,0,0,0-.68,1.28c-.09,1.32-.19,2.65-.28,4-.06.87-1,1.77-1.42,2.47-.21.3-.37.8-.72.83s-1.14-.11-1.42.1L64,122.16c-.18.12-.18,1.43-.2,1.67a2.63,2.63,0,0,1-.16,1l-2.17,2.79-2,2.56c-.15.19-2.24-.71-2.56-.81-.19.72,1,.79,1.13,1.41a4.34,4.34,0,0,1,.24,1.19c0,.27-.46.67-.6.89-.43.64-1,.63-1.73.82a3.07,3.07,0,0,1-1.7,0c.13.44.25.62.08,1s0,.68-.12.79c-.69.49-1.09.27-1.82-.09a6,6,0,0,0,0,1.2c.07.25.48.69.37.93L52.07,139c-.21.47-.29.43-.77.54a.53.53,0,0,0-.17.08,77.8,77.8,0,0,0,119.77-33c-.59-.56-1.14-1.13-1.67-1.71a4.36,4.36,0,0,1-.79-1,6.69,6.69,0,0,0-.73-1.61c-.13-.14-.35-.06-.41-.29l-.25-1c-.14-.54-.82-.42-.84-1s-.63-.63-.92-.89c-.13-.11-.86-1-.71-1.25s1,.22,1.2.24c.61.07.52.3.84.77a9.85,9.85,0,0,0,1,.92c.35.34.79.47,1.07.86.16.22.33.2.58.24.41.08.13.13.37.31s.37,0,.37.39c0,.19.43.16.49.49s-.21.3-.16.58.4.25.55.31.14.55.17.69.36.26,0,.59a.52.52,0,0,1,.7-.13l.09-.26a.11.11,0,0,0-.1-.09.39.39,0,0,1-.34-.08c.16-.19.24-.51.44-.19v-.21a.23.23,0,0,1,.19.07A77.06,77.06,0,0,0,176,85l-.66.25C174.84,85.32,174.91,85.32,175,85.64Zm-54.71-12c.11-.22.65-.11.79-.08a3.37,3.37,0,0,0,.81-.34c-.2.19-.54.34-.35.68C121.38,74,119.91,74.37,120.27,73.66Zm-6-.44a1.2,1.2,0,0,0,1,.27c.24,0,.76.06.75.33a5.45,5.45,0,0,1-1.93-.23A1,1,0,0,1,114.31,73.22Zm-10.67-5.86a2.82,2.82,0,0,0,.46-.38c.12-.15-.06-.33.14-.37a2.77,2.77,0,0,1-.16,1.4c-.22,0-.68-.43-.43-.65Zm-.27,1.18.21.08c.2-.13,1-.57,1,.16a10,10,0,0,1-.14,1.08c0,.36-.32.16-.34.36s-.25.3-.46.11,0-.29.06-.61c0-.06-.17-.15-.16-.22s.21-.31.19-.41c-.05-.28-.43-.16-.3-.55Zm-3.21,1.2-.37.31-.43-.33c.39-.23.56-.47.81,0ZM105,54.66c-.18,0-.47-.36-.49-.54.21-.12.42-.19.48.07a.24.24,0,0,1,.17.3A.25.25,0,0,1,105,54.66Zm9-3.84c-.34.21-.76.3-1,.67a.56.56,0,0,0-.17-.64,1.53,1.53,0,0,1,1.17,0Zm-2.21-2h-.11v.23C111.19,48.75,111.8,48.4,111.86,48.86Zm-.8,2.6c-.16.21-.36.36-.14.62a1.42,1.42,0,0,0-.59.46c0-.53,0-1.24.73-1.07Zm-5.59,2.47a.29.29,0,0,0,.17-.36h.24c-.11.2,0,.29.17.31-.46-.91,1.1,0,.14.16.08.05.13.17.21.22-.38,0-.35.39-.4.72-.06-.29,0-.55-.3-.52S105.41,54.18,105.47,53.93Zm26.27-15.76c-.47-.45-.32-.74.2-1a1.64,1.64,0,0,1,.88.44C132.65,37.79,132,38.4,131.74,38.17Zm8.19-1.28c-.32.27-1.2-.46-1.31-.75l.39-.24C139.16,36,140.24,36.61,139.93,36.89Zm7-5.37a.69.69,0,0,1,.8.51l-1.17.2c0-.47-.07-.63.36-.72Zm-4.46-12.18c.13-.07.14-.4.26-.49s.52,0,.68-.05c0,.46.16.65-.26.74l-1.38.31a2.76,2.76,0,0,1-.3-.29c.27-.58.63,0,1-.25Zm-1.32.56c-.26.29-1,.79-1.25.44s-.31-.14-.56-.13-.25-.26-.34-.5a6.24,6.24,0,0,1,1.46-.54c.32-.12,1,.37.68.7Zm-2.55.88c-.44.09-1.67.47-1.84,0s1.64-.56,1.81-.57l.52.27-.66.1c.06,0,.06.1.17.16Zm.95.25-.39.2c-.12-.08-.23-.17-.34-.26.27-.09.59-.3.73,0ZM137.82,18c.51-.36.76-.23,1.38-.12l-1.12.28.55.48-.91.37-1.15-.16c.43-.31.84-.58,1.25-.88Zm-1,1.17a4,4,0,0,1,1.41.32,2.87,2.87,0,0,1-1.44.53l-1.28-.39c.42-.56.66-.47,1.35-.5Zm-1.1,1.29-.52.42-1-.13C134.89,20.18,134.91,20.14,135.7,20.44Zm-1.22,12.67c.21-.43-.19-.45.25-.77.12-.1.82-.48.79-.63-.08-.39-.22-.57,0-.85l1-1.07a17.76,17.76,0,0,1,1.48-1.4,6.68,6.68,0,0,1,1.87-.78,4.72,4.72,0,0,1,2-.35,5.78,5.78,0,0,0,2.26-.9c.3-.25,2-.63,1.93.26-.07.74-1.73,1-2.14,1.18-.82.28-1.67.52-2.49.78a6.84,6.84,0,0,0-1.71,1.1,4.29,4.29,0,0,0-1.11.71c-.27.34-.52.7-.8,1-.47.55-1.26,1.25-1.24,2,0,1,.64,1.5,1.39,2-.48.4-1.6,0-2.14,0a2.4,2.4,0,0,1-1.57-.82c-.38-.42-.44-.43-.4-1C133.83,33.28,134.3,33.42,134.48,33.11Zm-2.88-13.5a2.44,2.44,0,0,0,1.22-.19c.44-.12.68.1,1,.34l-2,.47.15.54a4.34,4.34,0,0,1-1.64-.26l1-.67-1.26.33-.91-.25a4.09,4.09,0,0,1,2.37-.3Zm-23.54,20.3a1.35,1.35,0,0,0,.15-.26c-.13,0-.09-.09-.19-.16a.38.38,0,0,0,.43-.44c0,.43-.13.54-.41.83Zm.49-.64a1.15,1.15,0,0,1,0-.37h.26c.09-.22.23-.37.45-.35Zm5.08-3.69c.28.08.24-.06.47-.18,0,.22-.19.31-.35.46-.31,0-.62.13-.71-.31a1.32,1.32,0,0,1,.56,0ZM113,36a2.4,2.4,0,0,0,.8-.08c.25-.12.26-.4.57-.41a2.21,2.21,0,0,1-1.57.85c.17-.08.3-.2.17-.39Zm-.73.24c0,.26-.06.37-.25.23l-.08-.22a1.1,1.1,0,0,1,.31,0Zm-.27.4-.61.28-.43.15c.17-.31.71-.65,1-.46Zm-.52-.11a.36.36,0,0,1-.35.24l-.23-.11c.06-.33.34-.29.56-.16Zm-.67.15c.34.12.15.23,0,.45h-.48a5,5,0,0,0,.46-.46Zm-.94.49c.23-.07.39-.18.52.12-.16.13-.9.87-.87.32,0-.4,0-.36.33-.47Zm-.21.8.56-.47-.8.86c-.1-.27,0-.42.22-.42Zm-.35.49a.37.37,0,0,0-.48.18c-.18.24-.29.15-.57.1.17-.18.13-.1.16-.33h.2c-.08-.24,0-.43.26-.43a3.34,3.34,0,0,1-.09.52c.25-.13.15-.36.3-.45s.25.18.2.38Zm-.28-.91-.07.18-.41.32c-.12-.37.22-.43.46-.53Zm-.81.33c.24.2.3.4,0,.6l-.45-.09Zm.08.73-.58.37c0-.48.26-.4.56-.41Zm-1.07.31c.13-.13.26-.15.37,0a.33.33,0,0,1-.4.22,1.08,1.08,0,0,1,0-.26ZM95.6,50.23l-.11.07h.32c-.16.09-.19.12-.36.07s0,.09,0,.13l-.1-.15c0-.09,0-.35.23-.16Zm-2,1.66h.2c-.07-.11-.07-.27-.15-.38a.48.48,0,0,1,.49,0,2.52,2.52,0,0,1-.26-.29l.06-.18h.21c-.11-.26.16-.53.21-.2.23-.11.07-.08.21,0a1.55,1.55,0,0,1,1-.18c-.08.46-.66.53-.73.85h-.23a2.07,2.07,0,0,1,.33.1c-.11.07-.16.21-.25.3l.07.07c.14-.3,1.42-.44,1.61-.16.3.45-.81,1-.57,1.55a.47.47,0,0,0-.51.21c.78.11,1.15.18,1.41,1,.21.67.89.75,1,1.57A.36.36,0,0,0,97.2,56h0c.31,0,1,.53.52.84.11.12,1.2-.32,1.13.32s-.38.8-.85,1.15c.18,0,1.13.22.52.47a7.69,7.69,0,0,1-1.24.29c-.27.06-.33-.19-.56-.21s-.52.25-.68.34c-.56.28-.67-.35-1,.42-.53-.4-1,.39-1.35.13.22-.24.71-.49.79-.79.14-.57.61-.38,1-.32a1,1,0,0,1,.32-.5l-.69.23a2.2,2.2,0,0,0-.51-.18l.12-.09c-.31-.18-.58.29-.79-.06v-.18c.18-.08.65-.16.76-.32s0-.39.08-.7l-.48.09c.25-.16.38-.38.11-.6a.26.26,0,0,1,.36.13s0,0,0,.05c.21-.17.42-.07.65,0v-.17c.12.07.09,0,.19.13h.08a.78.78,0,0,1-.06-.92c-.39.3-.74-.7-.09-.85-.37-.05-.71.29-1,.12.1.3-.18.08-.35,0v.23c-.36-.28-.06-.32,0-.64a.72.72,0,0,0,0-.5c-.06-.27-.08-.26.11-.28a.73.73,0,0,0-.08-.25c-.22.48-.5.21-.17-.06-.29.11-.27.37-.31.61s0,.64-.21.44,0-.17,0-.3V53.6a1,1,0,0,1,.41-.78l-.07-.1c-.2.17-.32.4-.56.25.41.24-.07.44-.25.25.29-.06.28-.18,0-.24.09-.13.31-.2.33-.29a1,1,0,0,1,.24-.49l-.16-.05.11,0c.06-.08,0-.07,0-.25Zm.36,2c.17,0,.21.16.12.32a.46.46,0,0,1-.17-.36Zm.4,1.77a.44.44,0,0,1,.28-.37.28.28,0,0,1-.13.38h-.15Zm-.85-1.86c-.11-.24,0-.35.17-.31a1.45,1.45,0,0,1-.17.26Zm-.35,0a.63.63,0,0,1,.23-.16c.1.18.07.33-.11.39,0-.13.07-.21-.11-.25Zm0-1.34.09-.06v.14Zm.54-.27c-.2.44-.6-.06-.78-.27L93,51.8l.18.15v-.2c0-.06.13.06.18.16s.14.32.38.29Zm-.47-1.36c.13-.06.17.34-.12.37l.1.14c-.21,0-.28.14-.45.3l-.07-.14.13-.06c-.38-.34.23-.53.44-.63Zm-.52,1a.85.85,0,0,0-.11.6c-.22-.17-.07-.41-.1-.52s-.09,0-.07-.12a1.08,1.08,0,0,1,.31,0Zm-2.31,5.82a.65.65,0,0,0,.46-.31c.12-.17.51-.16.69-.2a1.61,1.61,0,0,0-.84.09,5.47,5.47,0,0,1,.66-.7,2.12,2.12,0,0,1-.81-.25c.09-.1.34-.25.29-.41-.09-.31-.17-.34.1-.49s.38,0,.54.08.35-.1.54-.26L91.52,55c.24-.41.72-.95,1.22-.66l-.1.18c.15,0,.55-.21.66-.09s.23.61.46.54c0,.56-.19.57-.62.87a1.08,1.08,0,0,1,.27.92l-.21.71c-.08.26-.24.07-.45.12-.62.17-1.49,1.18-2.13.64.08,0,.13-.15.21-.19l-.46-.13a2.31,2.31,0,0,0,.35-.18,1,1,0,0,0-.32-.13ZM43.29,32.39c-.27.06-1,.39-1.27.25a2.31,2.31,0,0,1-.48-.28c-.18-.26.1-.36-.24-.52a.48.48,0,0,1-.21-.64.45.45,0,0,1,.32-.25l.81.29c.23.08.53-.08.75,0a3.75,3.75,0,0,1,1.45,1.17A4.28,4.28,0,0,0,43.29,32.39Zm2.13,6.85a.52.52,0,0,1,.73-.07.52.52,0,0,1,.19.36c-.11,0-1.18,0-.92-.29ZM45.14,39c-.16.44,0,.64-.23,1.09s-.95,0-1.18-.18c-.6-.56.85-1.68,1.43-.9Zm-6.09,7.59c-.09,0-.13-.27-.16-.35-.1-.25,0-.23.18-.39a1.48,1.48,0,0,1,.88-.32h.44a1.31,1.31,0,0,1-1.32,1.07ZM40.91,45c-.41-.12-1.53-.25-1.44-.91-.41.16-.36.49-.77.64-.24.09-.46.49-.74.68s-.25-.72-.35-.79a8.7,8.7,0,0,0-1,.18c.13-.19.64-.57.71-.72s-.09-.37-.07-.52.07-.42.12-.63c.13-.51.11-.89.57-1.08s.6.5.08.59a1,1,0,0,0,.14.3c.26-.36.34-.25.58,0s.46.11.65.23,1.54.81,1,1.31a1.09,1.09,0,0,1,1.11.3Zm.86,2.29c-.21-.23-.34-.27-.31-.58s.28-.52.53-.44c.63.2,0,.83-.2,1Zm11.7,16.4c-.43-.19-1-.31-.67-.93l.19.44,1.32.1c-.28.36-.39.6-.82.4ZM52.53,60a2.52,2.52,0,0,1,2,.74c-.58.46-1.58-.37-2-.69ZM43.65,88.16a2.43,2.43,0,0,1-.81-.43c.3-.43.93-.08,1.28,0a2.4,2.4,0,0,1,.18.26c-.27,0-.47.22-.63.18Zm1.21-1.7a9.62,9.62,0,0,1-1.61,0c.07-.08.43-.35.43-.44,0-.3-.43-.18-.54-.23-.44-.21-.45-.66-.83-.73a10.7,10.7,0,0,0-1.19-.35c-.25,0-.27-.18-.49-.11a.52.52,0,0,1-.52-.19.49.49,0,0,0,.37-.08c-.72-.72-1.54.91-2.26.53.36-.22.48-.67.93-.78a4.25,4.25,0,0,1,1.58-.21A6.2,6.2,0,0,1,43.43,85l0-.1a1.44,1.44,0,0,0,1.15.56c.09,0,.2.31.41.34a1.54,1.54,0,0,1,.67.4Zm4.44,1.16c-.43,0-.68.12-1,.13-.07,0-.13-.2-.33-.06s-.12.55-.25.59c-.3.1-.25-.39-.36-.45s-.41,0-.57,0c-.55-.09-.73.15-1.17-.17-.15-.46,1.15.06,1.46-.16-.33-.48-.27-.64-.79-.88.5-.24.64-.07,1.15-.06a1.83,1.83,0,0,0,.46-.12c.17-.1.44.09.62.14s.24-.09.37.16a.64.64,0,0,0,.55.42c.14,0,.47.22.39.37-.24.38-.17.1-.49.1Zm1.37.28c-.23-.58.6-.32.92-.3l.11.12c-.14.26-.85.59-1,.18Zm10-25c-.2.29-.26.28-.58.16s-.34-.16-.26-.61c-.6,0-.73.45-1.3.57a.43.43,0,0,1,.34-.48,3.22,3.22,0,0,0-2-.26c-.2,0-.71.09-.85-.14a1.46,1.46,0,0,1,.08-.9,5.27,5.27,0,0,0,1.3-1.92c.21-.51.84-1.31,1.42-1.06l-.28.61c-.32.29-.46.33-.45.79,0,.14.24.18.35.23s.1.39.12.54c.24-.07,1-.37,1.26-.14a.61.61,0,0,1,.25.7c0,.13.38.23.44.47s.36,1.11.14,1.45Zm16.1-24-1.69.46c-.37.09-.47.3-.73.63a6.86,6.86,0,0,1-1,1.26,5.09,5.09,0,0,1-1.25.41l-1.8.59c-.46.15-.44.16-.62.65-.33.92-.66,1.82-1,2.75l-1.12,3.48c0,.11-.85.09-1,0l-1.79-.66c-.3-.1-.82-.16-1-.45l-1.12-1.77a14.81,14.81,0,0,1-1.75-3l-.75-2.09a4.85,4.85,0,0,1,.17-1.82c0-.08,0-.57.09-.6l1-.44c.1,0,.56-.15.57-.27l.14-1.11-1.47.44c-.67.2-.64.2-1.14-.35s-.15-.76,0-1.36-.34-.84-.74-1.25-.08-.74.09-1.26.11-.62-.13-1.17a14,14,0,0,0-1.4-2.82c-.16-.2-.66-1.11-.91-1.15L55,27.72a9.27,9.27,0,0,0-2.78-.24l-1.61.21c-.28,0-1-.55-1.19-.69l-1.43-.85c-.35-.2-.66-.86-.9-1.19-.09-.12-.46-.49-.43-.63s0-.69.23-.74l2.38-.71A7.79,7.79,0,0,1,51,22.52c.45,0,.51.06.68-.38L52.16,21c-.71-.08-1.34,0-1.85-.56l4.19-2.16,1.69-.88a5.63,5.63,0,0,1,1.52-.21l3-.39a5.57,5.57,0,0,1,1.52-.2,28,28,0,0,1,4.13,1.21,5.69,5.69,0,0,0-2.14-1.69L66.69,15c.55-.25,1.26,0,1.85.15l1.47.25c.37.08.41-.59.71-.77a2.49,2.49,0,0,1,.82-.07l1.82-.16a21.65,21.65,0,0,1,5,.41,15.49,15.49,0,0,1,4.22,1.49l-2.2.79a2.24,2.24,0,0,0,1.51.27c.5,0-.24,1.39-.31,1.53.44-.2,1.38-.84,1.84-.77l1.23.21c.35.06.49-.34.71-.61s1.35-.32,1.85-.22a11.42,11.42,0,0,1,2,.8l-1.78,1a5.09,5.09,0,0,1-1.59.4l.44.37A6.42,6.42,0,0,1,85,21.22a3.88,3.88,0,0,0-1.32,1c-.28.44-1,1.13-.74,1.66.28.7.67.85,1.27,1.26l-1.7,1.66,1.17.8c.31.21.27.8.33,1.17,0,.17.3,1.15.2,1.27l-1.16,1.28a7.2,7.2,0,0,0-1,2.52c-.11.32.23,1.08.31,1.41.15.67.12.65-.32,1.18l-2.75,1.68a9.15,9.15,0,0,1-2.49.79Zm8.2,6A1.39,1.39,0,0,1,84,45a2,2,0,0,1-.59-.13c-.09-.06-.19-.38-.31-.36l-1.31.18c-.17-.46.5-.33.64-.72h-.17v-.18c-.23,0-.32-.11-.17-.29-.3,0-1.19.2-1.28-.2.5,0,1-.22,1.6-.21v-.15a.57.57,0,0,1-.54,0l.57-.27c-.23,0-.68-.28-.91-.19-.46.19-.58.28-1,.09.16-.09.12-.15.31-.12v-.22c0-.07.36.2.44,0s-.39-.15-.13-.47.91.5.84-.19c-.23,0-.41,0-.49-.25.53,0,.5.08.91.42.08.07.38.14.39.28a.24.24,0,0,1-.22.26h-.07a5.79,5.79,0,0,0,.42.67,5.11,5.11,0,0,1,.27-.64c.15-.24.46,0,.22-.53.3-.06.47.29.67.5-.09-.26,0-.58.3-.57s.41.26.62.56a3.27,3.27,0,0,0-.1-.6c.53.25.68,0,1.23,0-.32-.83,1.53-.08,1.15.56.31-.11.52.08.78.23s-.06.45.19.62c-.22.22-.38.53-.7.36,0,.43-.22.73-.61.63s-.78.42-1,.57l-.6.08c-.16,0-.12.14-.29.24Zm47.76,69.46-.35-.36a5.26,5.26,0,0,1-.28,2.39l-1.25,4.19-.34,1.15s-.91.31-1,.37-1-.23-1-.42a12.91,12.91,0,0,0-.27-1.51,2.28,2.28,0,0,1-.1-1.48c.16-.46.68-.92.73-1.4a5.58,5.58,0,0,0-.34-1.57c-.05-.25.16-1.16.36-1.2a4.69,4.69,0,0,0,1.41-.52c.44-.22.6-.61.95-1s.62-.5.65-1.19c0-.87.62,0,.8.28h0a3.52,3.52,0,0,1,.08,2.29Zm42.63-27.64c-.25,0-.3.32-.34.57s-.37.26-.53.34.06.2-.13.18a.69.69,0,0,1-.39-.12c-.35-.2-.28-.29-.28-.75.44-.28.76-.87,1.4-.52v-.16c.25,0,.32.23.27.47Z"/><path class="cls-1" d="M135.55,68c-.13-.11-.12-.46-.25-.55-.58-.35-.67.55-.68.89a1.19,1.19,0,0,1-.12-1.4,3.29,3.29,0,0,1-.95-.43,3.49,3.49,0,0,1-.16-1s-.8-.34-.44-.42.43.33.79.07c-.24-.22-.46-.26-.27-.56a.66.66,0,0,1,.56-.22,6.49,6.49,0,0,1,1.39.21.82.82,0,0,0-.49.74c.26-.36.36-.59.8-.64-.22-.68-.38-.23-.95-.41.09-.3.29-.64.13-.93-.06-.12-.31-.72-.52-.47s-.55,0-.85-.12-.57.27-.8.31c-.56.1-.53-.19-.69.51,0,.19-.69.34-.85.41-.4.17-.37.19-.46.65,0,.22-.37.44-.51.6A.76.76,0,0,1,131,66a2.62,2.62,0,0,0,.31,1.4c.15.34.54.45.72.77a1.74,1.74,0,0,0,.9.93c-.41.12-.49.08-.6.54a6.15,6.15,0,0,1-.29.82,1.76,1.76,0,0,0-.05.91c0,.4.14.33.5.41s.32.3.58.38l.91.29a4.28,4.28,0,0,0,1.47-.19,5.1,5.1,0,0,1-.06-1.46c.14-.75-.19-.4-.49-.93a1.41,1.41,0,0,0,.29,0,1.53,1.53,0,0,0-.14-.46c-.09-.08-.34,0-.41-.07-.2-.25-.07-.5,0-.73a3.83,3.83,0,0,0,1.35.07C136.05,68.34,135.77,68.21,135.55,68Z"/><path class="cls-2" d="M31.46,38l.27-.46A.52.52,0,0,0,31.46,38Z"/><path class="cls-2" d="M35,32.54l.68-.94A2.12,2.12,0,0,0,35,32.54Z"/><path class="cls-2" d="M108,39.46c.1.07.06.11.19.16a1.35,1.35,0,0,1-.15.26c.28-.3.44-.41.39-.87C108.43,39.36,108.25,39.43,108,39.46Z"/><path class="cls-2" d="M93.48,53.78a1.87,1.87,0,0,0,.17-.31C93.51,53.43,93.37,53.55,93.48,53.78Z"/><path class="cls-2" d="M94.61,55.27a.46.46,0,0,0-.28.38h.14A.29.29,0,0,0,94.61,55.27Z"/><path class="cls-2" d="M90.83,58c-.08,0-.13.16-.21.2.64.54,1.51-.47,2.13-.64.21-.06.37.13.45-.12l.21-.71a1.08,1.08,0,0,0-.27-.92c.43-.3.57-.31.62-.87-.23.07-.29-.34-.46-.54s-.51.06-.66.09l.1-.18c-.49-.29-1,.25-1.22.66l.48.17c-.2.15-.3.32-.54.26s-.38-.18-.54-.08-.19.18-.1.49c0,.15-.2.32-.29.41a2.12,2.12,0,0,0,.81.25,5.47,5.47,0,0,0-.66.7,1.52,1.52,0,0,1,.84-.09c-.19,0-.58,0-.69.2a.65.65,0,0,1-.46.31c.11,0,.22.09.34.1a2.31,2.31,0,0,1-.35.18Z"/><path class="cls-2" d="M93.77,52.06l-.12,0,.17,0a.89.89,0,0,0-.25.49c0,.09-.24.17-.33.29.3.06.3.18,0,.24.18.19.66,0,.25-.25.26.15.38-.08.56-.25l.07.1c-.28.15-.33.47-.4.78s.07.21,0,.48-.17.2,0,.3.18-.27.2-.44,0-.5.31-.61c-.33.27,0,.55.18.06a1.83,1.83,0,0,1,.08.25c-.2,0-.17.09-.11.28a.54.54,0,0,1,0,.5c-.12.33-.41.36,0,.64v-.23c.17.06.44.28.34,0,.26.18.6-.18,1-.12-.65.15-.31,1.15.09.85a.77.77,0,0,0,.06.92h-.08c-.11-.15-.07-.06-.2-.13v.17c-.23,0-.44-.14-.65,0a.27.27,0,0,0-.33-.2l0,0c.27.22.14.44-.1.6l.47-.09c0,.31.15.39-.08.7s-.59.24-.76.32V58c.2.36.48-.11.79.07l-.12.09c.13,0,.46.2.51.18l.69-.23a1.11,1.11,0,0,0-.32.5c-.43-.06-.89-.25-1,.32-.07.3-.57.55-.78.79.38.27.8-.53,1.35-.13.3-.76.42-.14,1-.42.17-.08.51-.35.68-.34s.3.27.56.21a7.45,7.45,0,0,0,1.24-.29c.61-.26-.33-.45-.52-.47.47-.35.78-.53.85-1.15s-1-.21-1.12-.32c.42-.31-.22-.85-.53-.85a.37.37,0,0,1,.49.15h0c-.13-.83-.83-.9-1-1.57-.26-.86-.63-.93-1.41-1a.47.47,0,0,1,.51-.21c-.23-.5.87-1.1.58-1.55-.19-.28-1.46-.14-1.62.16l-.07-.07c.09-.08.14-.23.26-.3a1.91,1.91,0,0,0-.34-.1H95c.07-.31.65-.39.74-.85a1.52,1.52,0,0,0-1,.18c-.14-.08,0-.1-.2,0-.06-.32-.33,0-.22.2H94.1l-.06.18a3.58,3.58,0,0,0,.26.29.46.46,0,0,0-.48,0c.06.11.07.27.14.38h-.19C93.54,52,93.63,52,93.77,52.06Z"/><path class="cls-2" d="M46.38,21.89l-.15-.47c.32.09.72.32,1,.16a2.84,2.84,0,0,0,1-.76h-.94l1.51-.31a5.48,5.48,0,0,0,1.35-.82c.52-.33,2.22-.76,2.25-1.39l-3.86.78,2.35-.7-1.37-.23,3-.23a7.53,7.53,0,0,0,2.28-1.15,14.77,14.77,0,0,0-2.63-.7,2.83,2.83,0,0,0-1.16,0,77.42,77.42,0,0,0-7.1,6.2C44.72,22.14,45.54,22.06,46.38,21.89Z"/><path class="cls-2" d="M93.25,52.41l-.09.06.08.09A.13.13,0,0,0,93.25,52.41Z"/><path class="cls-2" d="M92.69,51.51l.07.14a.92.92,0,0,1,.45-.3l-.1-.14c.29,0,.26-.43.12-.37s-.83.29-.41.61Z"/><path class="cls-2" d="M92.5,51.9c0,.11-.12.35.1.52a.85.85,0,0,1,.11-.6h-.28S92.45,51.82,92.5,51.9Z"/><path class="cls-2" d="M93.2,51.72v.19L93,51.77l-.09.14c.19.22.58.71.79.28-.24,0-.39-.08-.34-.32S93.31,51.73,93.2,51.72Z"/><path class="cls-2" d="M93.26,54c.18-.06.2-.21.11-.39a.63.63,0,0,0-.23.16C93.32,53.85,93.2,53.93,93.26,54Z"/><path class="cls-2" d="M108.75,38.47a3,3,0,0,1,.09-.52.29.29,0,0,0-.26.42h-.2c0,.24,0,.16-.16.34.28,0,.39.14.57-.1a.36.36,0,0,1,.48-.18c.06-.2,0-.57-.23-.43S109,38.34,108.75,38.47Z"/><path class="cls-2" d="M110.37,37.27c-.14-.3-.29-.19-.52-.12s-.32.07-.34.44C109.47,38.14,110.21,37.4,110.37,37.27Z"/><path class="cls-2" d="M110.2,37.48l-.56.47c-.23,0-.32.15-.24.38Z"/><path class="cls-2" d="M110.79,36.68a4.68,4.68,0,0,1-.46.43h.48C110.94,36.89,111.13,36.78,110.79,36.68Z"/><path class="cls-2" d="M108.94,37.69l.07-.17c-.24.1-.57.12-.48.5Z"/><path class="cls-2" d="M95.43,50.36a.66.66,0,0,0,.36-.07c-.12,0-.19-.06-.32,0l.11-.07c-.24-.18-.28.07-.29.16l.1.15A1.2,1.2,0,0,1,95.43,50.36Z"/><path class="cls-2" d="M107.58,38.86c-.11-.12-.24-.1-.38,0s0,.13,0,.19A.32.32,0,0,0,107.58,38.86Z"/><path class="cls-2" d="M107.7,39l.58-.37C108,38.59,107.69,38.51,107.7,39Z"/><path class="cls-2" d="M108.2,37.86l-.45.5.45.1C108.5,38.26,108.44,38.06,108.2,37.86Z"/><path class="cls-2" d="M50.69,87.9c.16.4.87.08,1-.18l-.11-.12C51.25,87.58,50.46,87.32,50.69,87.9Z"/><path class="cls-2" d="M111.46,36.51c-.22-.13-.49-.17-.58.13l.23.11A.36.36,0,0,0,111.46,36.51Z"/><path class="cls-2" d="M82.39,35.31c-.08-.33-.42-1.09-.31-1.41a7.39,7.39,0,0,1,1-2.52l1.16-1.28c.1-.12-.17-1.09-.2-1.27-.06-.37,0-1-.33-1.17l-1.17-.8,1.7-1.66c-.6-.41-1-.57-1.27-1.26-.23-.53.46-1.22.74-1.66a3.88,3.88,0,0,1,1.32-1,6.42,6.42,0,0,0,1.32-1.18l-.44-.37a5.09,5.09,0,0,0,1.59-.4l1.78-1a11.42,11.42,0,0,0-2-.8c-.49-.1-1.5-.2-1.85.22s-.36.67-.71.61l-1.23-.2c-.46-.09-1.4.56-1.84.76.07-.14.94-1.52.31-1.53s-1,.1-1.51-.27l2.2-.79a15.49,15.49,0,0,0-4.22-1.49,21.61,21.61,0,0,0-5-.41l-1.83.16a2.49,2.49,0,0,0-.82.07c-.3.18-.34.85-.71.78l-1.47-.26c-.58-.1-1.3-.4-1.85-.15l-2.47,1.13a5.69,5.69,0,0,1,2.14,1.69,28,28,0,0,0-4.13-1.21,5.57,5.57,0,0,0-1.52.2l-3,.39a5.27,5.27,0,0,0-1.52.22l-1.69.87-4.19,2.15c.52.57,1.14.48,1.85.56l-.46,1.18c-.18.43-.24.35-.68.37a7.77,7.77,0,0,0-1.8.36l-2.45.7c-.19.06-.19.54-.23.74s.34.52.43.63c.24.33.54,1,.9,1.19l1.43.85c.23.14.91.72,1.19.69l1.61-.21a9.3,9.3,0,0,1,2.78.24L56.4,28c.25,0,.76,1,.91,1.15A13.15,13.15,0,0,1,58.79,32c.24.55.32.6.13,1.17s-.48.85-.09,1.26.88.65.74,1.26-.38.92,0,1.36.47.54,1.14.34L62.18,37,62,38.09c0,.12-.48.23-.57.27l-1,.44c-.08,0-.08.52-.09.6a4.87,4.87,0,0,0-.17,1.82l.75,2.09a14.81,14.81,0,0,0,1.75,3l1.12,1.77c.19.29.71.34,1,.46l1.8.66a2.83,2.83,0,0,0,1,0l1.12-3.49c.29-.93.62-1.83.95-2.75.18-.49.16-.5.62-.65l1.8-.59a5.3,5.3,0,0,0,1.26-.41,7.25,7.25,0,0,0,1-1.26c.26-.32.37-.54.73-.63L76.82,39a9.33,9.33,0,0,0,2.53-.75l2.75-1.68C82.51,36,82.54,36,82.39,35.31Z"/><path class="cls-2" d="M60.14,61c0-.4,0-.41-.25-.7s-1,.07-1.26.14c0-.15,0-.48-.11-.54s-.36-.09-.36-.23c0-.46.13-.5.45-.79l.28-.61c-.58-.24-1.21.55-1.42,1.06a5.15,5.15,0,0,1-1.3,1.92,1.46,1.46,0,0,0-.08.9c.14.22.65.16.85.14a3.22,3.22,0,0,1,2,.26.43.43,0,0,0-.34.48c.57-.12.7-.53,1.31-.57-.09.45-.15.46.25.61s.38.13.58-.16,0-1.1-.11-1.45S60.12,61.09,60.14,61Z"/><path class="cls-2" d="M49.41,87.17c-.35-.08-.36-.08-.55-.42s-.15-.08-.37-.16-.45-.24-.62-.14a1.83,1.83,0,0,1-.46.12c-.52,0-.66-.18-1.15.06.52.24.46.4.79.88-.32.23-1.61-.29-1.46.16.44.32.62.08,1.17.17.16,0,.43-.08.57,0s.06.55.36.45c.13,0,.13-.5.25-.59s.26.06.33.06c.38,0,.64-.13,1-.13s.25.28.47-.09C49.88,87.43,49.56,87.2,49.41,87.17Z"/><path class="cls-2" d="M132.63,112.12c-.18-.25-.77-1.15-.8-.28,0,.69-.22.7-.65,1.19s-.51.77-1,1a4.69,4.69,0,0,1-1.41.52c-.2,0-.42,1-.36,1.2a5.58,5.58,0,0,1,.34,1.57c-.05.48-.58,1-.73,1.4a2.35,2.35,0,0,0,.09,1.48,11.14,11.14,0,0,1,.28,1.51c0,.19.88.5,1,.42s1-.32,1-.37l.34-1.15,1.25-4.19a5.4,5.4,0,0,0,.28-2.39l.35.36a3.49,3.49,0,0,0-.11-2.19Z"/><path class="cls-2" d="M175.08,86.41c-.64-.35-1,.24-1.4.52,0,.45-.08.54.28.75a.69.69,0,0,0,.39.12c.19,0,0-.13.13-.18s.5-.08.53-.34.09-.59.34-.57c.05-.24,0-.43-.24-.47Z"/><path class="cls-2" d="M159,29.14h0c-.54.31-.48.32-.5,1,0,.36.13.72-.22.76l-1.58.17-2.82.28c.06.32.12,1.55.4,1.6s.81,0,1,.17a3.46,3.46,0,0,1,.33.9c-.25,0-.58.18-.8,0a5.41,5.41,0,0,0-.72-.45,2.5,2.5,0,0,0-2-.25c-.28.09-1.48.61-.78.93a17,17,0,0,0,1.82.76c-.43,0-2.15,0-2.37-.46s-.38-.6-.05-1.22c.14-.26-.33-.9-.56-.84.08.19.35.94,0,1.07a2.06,2.06,0,0,0-1.1.66c-.27.42.39.89.57,1.17s-.17.83-.34,1.19.14.82.22,1.11c0,.11,1.12-.14,1.25-.16a1,1,0,0,1,1,.25c.35.24.3.66.36,1.08l-.85-1c-.17-.2-.78.13-1,.19-1.12.35.24,1.15-.28,1.68a6.3,6.3,0,0,1-1.83,1.58,2.18,2.18,0,0,1-2-.65c.24,0,.87.24,1.08.12l1.4-.85c.26-.16.41-.88.54-1.17.23-.54-.25-.59-.68-.87s.37-2.24.15-2.68c-.13-.25-.57-.86-.47-1.13l.56-1.52c-.49,0-2.54-.54-2.7-.07s-.25,1.22-.54,1.45l-1.3,1c.19.14.88.4.77.64s-.59.92-.3,1.13l1.32,1c.18.13,0,.88-.07,1.11a6.64,6.64,0,0,0-1.24-.94l-1.8-.71a4.15,4.15,0,0,0-3-.11c.37.49.62.53.24,1s-.39.52-1,.34l.26-.45a1.38,1.38,0,0,0-1.22.1,1.89,1.89,0,0,1-1.24.08c-.33,0-.53.68-.91.59-.59-.15-.58-.14-.77-.77l-2,.91-1.32.6c-.16.07-.58.16-.69.32-.25.32.08.67-.38.73s-.75.26-1-.06-.62-.55-.41-.91.84-.15,1.08-.18c-.23-.29-.47-.85-.84-.9l-1.45-.2c.09.12.52.5.49.63-.08.37-.17.73-.26,1.11,0-.08.41.55.43.62.08.22-.11.64-.16.87l-1.2-.35c-.24-.07-.61.31-.81.44l-1.14.76a7.41,7.41,0,0,0,.39,1.15L124.3,43c-.62-.21-.65-.32-1.16.15.22.27.34.56.67.56s.49.52.16.65c-.54.23-1.25-.4-1.8-.65s-.4-1.3-.4-1.83-1-1.21-1.37-1.57A14.77,14.77,0,0,0,124,41.53a2.32,2.32,0,0,0,1.64-.1c.31-.1.37-.28.57-.59.31-.48.34-.47.15-1a2,2,0,0,0-1.32-1,9.65,9.65,0,0,1-1.78-.84,3.21,3.21,0,0,0-1.69-.58c-.35,0-1.63.27-1.52-.47.26.06.59.29.68-.06-.16-.08-.63-.43-.76-.27-.25.34-.62.17-1,.14-.16,0-.61.13-.65,0-.14-.35-.5-.24-.66-.55a3.7,3.7,0,0,0,1.1.1c.14,0,.84-.38.46-.53l-1.34-.53c-.42-.17-.12.8-.65.4l.37-.6c-.14,0-.65-.13-.73,0l-.59.79c0-.22-.09-.44-.13-.66-.28.35-.66,1.08-1.1,1.16a2.81,2.81,0,0,1,.86-1.45,2.08,2.08,0,0,0-1.2.22c-.35.2-.55.83-.94.94a21.76,21.76,0,0,0-2.92,1.08,6.89,6.89,0,0,0-2.1,1.92,16.36,16.36,0,0,0-1.9,2.26,11.25,11.25,0,0,1-1.63,2.47c-.36.34-.67.67-1,1a3.53,3.53,0,0,1-1.23.78,5.05,5.05,0,0,0-1.07.64c-.6.51-.66.51-.7,1.34s.32,1.9.35,2.86c0,.78,1.32,1,1.82.64.32-.2.58-.55.9-.78a1.39,1.39,0,0,0,.71-1c.07.21.1.57.32.63s0,.43.1.64a3.18,3.18,0,0,0,.32.67c.07.17,0,.43.12.57.25.33.87.85.7,1.27a1.91,1.91,0,0,0,.08.75c.06.41.09.32.46.3s.4.06.46-.2,0-.46.25-.5c.53-.11,1-.11,1.24-.72a7.66,7.66,0,0,0,.25-1.64c.09-.6.42-.75.86-1.12.25-.23.84-.52.68-.87s-.93-.47-1.17-.89c-.57-1,.33-2,.85-2.71.19-.23,2.29-1.32,2-1.77a.92.92,0,0,1,.25-1.18c.54-.61.61-.58,1.39-.55a1.1,1.1,0,0,1,1.13.85c.14.46-.22.23-.44.34s-.52.63-.69.86c-.35.43-.85.7-1.2,1.11-.14.18-.6.52-.65.75a3.5,3.5,0,0,0,.26,1,1.57,1.57,0,0,1,0,.86c-.08.52-.12.48.33.66a1,1,0,0,1,.65.57c.07.12.55,0,.66-.07,1.15-.22,2.29-.49,3.41-.71-.06.08-.06.22-.12.3.31.14,1,.27,1.17.64-.19,0-.58-.18-.76-.08s-.56.07-.77.21.14.41-.4.34l-1.2-.15a3.38,3.38,0,0,0-1.64.46c-.08,0,.07.61.15.71a3.19,3.19,0,0,0,.31.33c.05,0,.2-.14.28-.08s-.09.69-.06.85-.16.67-.44.64c-.52,0-.69-1.19-1.39-.67-.28.2-.15.53-.31.72a1,1,0,0,0-.23.73c0,.36.49,1.8-.3,1.42a1.18,1.18,0,0,0,.31-.43c-.11.18-.33.26-.49.4s-.19,0-.24.06-.1.34-.19.44c-.25.29-.88.22-.89-.24a.88.88,0,0,1,.31.13,1.48,1.48,0,0,0-1.8.34c-.21.28-1.28.31-1.58.5h.41a.66.66,0,0,1,0,.28c-.24-.14-.49-.21-.58-.49a.87.87,0,0,0-.61-.41c-.43.05-.86.76-1.35.47l.2-.44c-.51.25-1-.22-1.11-.76-.12-.74.54-.92.9-1.48-.6-.15-.46-1-.19-1.41-.39.2-.73.64-1.14.66s-.64.6-.62,1.12c0,.31,0,.43.18.61s.08.41.18.75.37.29.06.53.2.47.33.52c-.26,0-.55-.06-.48.3a2.25,2.25,0,0,0-.58-.07l-.37.06c-.12,0,0,.23-.12.25-.44.14-.82-.12-1.19.33-.11.14-.42.1-.45.28a1.7,1.7,0,0,1-.36.85c-.06.08,0,.24-.07.31s-.35.06-.35.09a1.88,1.88,0,0,0,.49.23,1.46,1.46,0,0,0-.9.11c-.18.09-.84.25-.93.39-.2.33.23.61-.18.82a2.08,2.08,0,0,0-.88.52c.09,0,.19.08.28.08a1.54,1.54,0,0,1-1,.13c-.2,0-.17,0-.25-.26s-.33-.12-.47-.13a3.21,3.21,0,0,1,.28.86c0,.19-.65.3-.79.32-.35.09,0-.6-.58-.21a1.68,1.68,0,0,1-.91.16.48.48,0,0,0,.3.44c-.08,0-.16.06-.23.07a.4.4,0,0,0,.45.22.74.74,0,0,1,.57.27,2,2,0,0,1,.49.11c.12.06,0,.21.28.15-.06.16,0,.69.27.78.51.16.42.34.43.87s.1,2-.62,2.14a2.31,2.31,0,0,1-1-.12c-.37-.13-.71.08-1.12-.06a1.82,1.82,0,0,0-1.26,0c-.37.09-.58-.43-1,0,0,0,0,.1.08.16-.16,0-.63,0-.73.25s.06.62.31.43a2.15,2.15,0,0,0,0,1.28c.18.44-.14,1.15-.25,1.6s-.32.57,0,1c.06.09.21-.11.22.05s0,.31,0,.45a3.08,3.08,0,0,1-.1.8c.32-.24.59.06.94-.14s.62.35,1,.17c-.36.26.16.91.46.81s.56-.6,1-.58a10.59,10.59,0,0,0,1.38,0c.14,0,.32-.43.4-.56s.45-.16.62-.21c-.14-.27.3-.62.46-.86s-.29-.56-.16-.78c.44-.75.66-1.33,1.38-1.7.24-.13.84-.29,1-.52s-.11-.93,0-1,.52-.64.75-.57l1.33.44a6.46,6.46,0,0,0,1.64-1.1c.18-.23.51-.13.76,0,.5.26.5.3.63.89s.78.86,1.25,1.31c.26.26.47.62.83.57.2,0,.71.35.67.58a.28.28,0,0,1,.38.07.27.27,0,0,1,0,.21c0,.21.3.22.44.24s.52,1.08.36,1.16,0,.28-.26.43a3.21,3.21,0,0,1-2.12.06c-.67.74,1,.68,1.19,1.18.08.28.79.17.62-.18a.74.74,0,0,1,.23-1h0c0,.56.68,0,.63-.4s.85-.36.33-.76c-.18-.14-.35-.12-.29-.38a.76.76,0,0,1,.31-.54c.21-.21.72.5.9.59.46-.61-1.33-1.35-1.68-1.63.38-.31,0-.3-.3-.31s-.53-.24-.84-.5-.22-.65-.41-.92a4.47,4.47,0,0,0-.86-.64c-.3-.23,0-.62-.06-.8-.26-.48,0-.52.42-.65s.35-.21.42.19.3.68.49.12a1.44,1.44,0,0,1,.62,1c.06.19.46.7.63.73a4.42,4.42,0,0,1,1.84,1.12c.41.33.59.33.54.87s-.21.87.23,1.23c.24.2.38.68.57,1,.33.49.33.56.88.56-.6.49-.44.56-.21,1.33.21-.18.34-.25.45,0s.36.26.64.31c-.1-.32-.23-.44,0-.63s.22-.41-.13-.47c.27-.34.46-.09.72.1.09-.64-.38-.74-.82-1,.33-.35.32-.3.08-.72s-.45-.56-.18-.85c.24.17.44.38.73.15.08-.06-.12-.33,0-.39a.91.91,0,0,1,.52-.15,6.6,6.6,0,0,1,.89.14c.23.09.47.09.67.18-.25.16-.48.24-.44.61l1-1c.23-.23.88.23,1-.12,0-.13-.67-.45-.8-.71s-.31-.93.13-1.21.43-.7.54-1.26c0-.18.44-.16.53-.31a3,3,0,0,0,.12-.74c0-.31.63-.76.83-1s1,.14,1.26,0c-.15.31-.51.16-.78.15.13.09.36.35.52.34a1.61,1.61,0,0,1,.69,0c.69.23-.33.6-.59.74.53.25.83.17.6.81.38.3,1-.31,1.41-.5s.68.23,1-.31c-.42,0-.84.16-1.1-.16s-.45-.9.07-.83l-.09.2a1.86,1.86,0,0,1,1.09-.58V63a1.74,1.74,0,0,1,1.27-.51c.12,0,.57-.15.48.15s-.63-.05-.5.37H124a2.14,2.14,0,0,0,.59.57c-.42,0-.8.17-.64.76l-.55-.11-.16.22c.2.14.38.31.58.44a5,5,0,0,0,.5.29c.49.06.79.5,1.16.85s.74.4,1,.76.43.88.06,1.1a1.87,1.87,0,0,1-1.29.41c-.44-.06-.72.21-1.16,0-.27-.11-1.08-.24-1.19-.39-.31-.42-.2,0-.49-.17s-.37-.25-.26-.43a2.93,2.93,0,0,1-1.25,0,2,2,0,0,0-1,.44c-.42.28-.45.44-1,.35-.3,0-.94-.17-1,.14l.53.27a2.86,2.86,0,0,1-1.54.35c-.34,0-1.14.18-1,.79l.56-.06c-.56.62.34,2.12.85,2.42.28.16.86.64,1.2.58s.36,0,.48-.42.33-.14.61-.09.61.56,1,.55a2.24,2.24,0,0,0,.73,0c.2-.09.36-.52.56-.55s.36.28.5.16.32-.35.47-.2-.42.92-.17,1.28c.39.57-.61,2.32-.8,2.87a1.51,1.51,0,0,1-2,.73.34.34,0,0,1-.12-.06c-.6-.28-.65-.19-1.26.11a1.22,1.22,0,0,1-1.2.1l-1.57-.47c-.12,0-.36.26-.44.13s-.14-.39-.4-.44l-1-.21c-.2,0-.06-.36-.21-.4a2.73,2.73,0,0,0-1.76.12c-.14,0-.31.5-.39.63s.21.45.11.65c-.41.8-.74.69-1.37.24-.45-.31-.9-.23-1.39-.45s-.4-.85-1-1l-2.17-.58c-.42-.11-.83-.66-1.16-1,.21-.23.84-.68.67-1-.35-.65-.29-.68,0-1.36-.42-.17-.8-.5-1.2-.25a2.27,2.27,0,0,1-1.47.17,3,3,0,0,0-.6,0c-.22,0-.42.29-.64.3a1.84,1.84,0,0,1-.65-.21,2.72,2.72,0,0,0-.81.09,10,10,0,0,0-2.62.81,14.25,14.25,0,0,0-1.25.75c-.09.05-.48-.24-.58-.29a3.3,3.3,0,0,0-.8.13c-.43.09-.8-.62-1-.58-.52.16-.61.88-.82,1.4-.29.75-1.82.89-1.94,1.65l-.29,2c-.08.53-.27.53-.69.8A4.35,4.35,0,0,0,88,80.32L86,84a2.9,2.9,0,0,0-.44.81,5.52,5.52,0,0,0,.33,1.5c.13.59.26,1.17.4,1.76.08.35-.3,1-.41,1.28s-.45.87-.34,1l.68,1.19,2.13,3.69a4.09,4.09,0,0,0,1.48,1.5L91.49,98c.23.16.53.53.8.43L94,97.78a1.93,1.93,0,0,1,1.23.11c.46.13.64.24,1,0l1.59-.8a7.52,7.52,0,0,1,2.67-.3l1.09,1.35c.26.31,1,.09,1.34.07.62,0,.6,0,1,.56s.31.5.24,1.1-.16,1.4-.24,2.1c0,.35-.2.71,0,1l1.14,1.53c.2.27.65.67.74,1l.78,3.37c.24,1,.59,1.83,0,2.83a9.61,9.61,0,0,0-.8,3.38c0,.25-.2.7-.08.94l.82,1.65a8.48,8.48,0,0,1,1,2.52l.33,2.12c0,.25,0,1.1.21,1.28a3.22,3.22,0,0,1,.87.92l.74,1.85c.11.28.47.85.44,1.16-.09.84-.1.82.47,1.34.17.17.64.78.88.73l1.46-.3,3.18-.67c.29-.06.73-.62,1-.82a15,15,0,0,0,1.22-1,26.25,26.25,0,0,0,1.83-2.59,4.67,4.67,0,0,0,.15-1.49c.06-.62,0-.84.45-1.08.3-.15,1.19-.37,1.38-.66a5.66,5.66,0,0,0,.18-1.69,6,6,0,0,0-.58-1.4c-.2-.48.18-.65.5-1l1.06-1.25a4.69,4.69,0,0,1,1.37-.66,2.46,2.46,0,0,0,1.27-2c0-1.1.16-2.45-.47-3.31a1.44,1.44,0,0,1-.42-1.33,1.77,1.77,0,0,0-.39-1.55c-.24-.38,1.28-2.46,1.53-2.87a27.19,27.19,0,0,1,4.17-4.73,9.36,9.36,0,0,0,1.24-2A11.75,11.75,0,0,0,133,94.47c0-.24.46-1.38.35-1.57s-.81-.05-1,0l-3.56.95c-.34.1-.81-.8-1.25-.93.64-.62-.19-1.15-.59-1.62l-.74-.87c-.17-.19-.81-.15-.89-.37a11.3,11.3,0,0,0-.78-2.13,5,5,0,0,0-.81-.78c-.2-.2-.17-.7-.21-1l-.22-1.37c0-.26-.46-.56-.63-.74-.39-.43-.29-1-.56-1.57l-1.33-2.71c-.22-.44-.89-1.25-.51-1.74a6.67,6.67,0,0,0,1.17,1.79l.47-1.43c0,.4-.11.8-.16,1.19.43-.11.56.45.74.76l1.09,1.94c.17.31.48.44.63.71a5.81,5.81,0,0,1,.65,1.46c.06.34.06,1.31.38,1.44.56.21.61.31.93.85a7.59,7.59,0,0,1,1.26,2.68l.39,2c.12.67.18.53.83.53.42,0,.5-.44.88-.54s1-.31,1.56-.41c.25,0,.43,0,.58-.25s.14-.28.32-.34l1.82-.65c.33-.12.28-.61.65-.78l.8-.35c.18-.08.46.14.62.06s.2-.71.41-.81l1.1-.53c.36-.17.52-.13.52-.55a2.43,2.43,0,0,1,.3-1.15c0,.12.1.23.12.34.23-.28,1-.88,1-1.24s.17-.61-.18-.66-.36-.53-.46-.71-.41-.16-.63-.26a5.4,5.4,0,0,1-.74-.51c-.41-.28-.28-1.08-.33-1.56a8.62,8.62,0,0,1-1.41,1.61,5,5,0,0,1-2,.25,3.63,3.63,0,0,0-.28-1.84c-.06.38-.12.78-.19,1.16-.45-.86-.88-1.74-1.37-2.58-.15-.23-.81-1-.62-1.26.55-.65.55-.68,1.35-.57.45.07.54.64.75,1.07a1.52,1.52,0,0,0,1,1c.35.16.59.63,1,.69a2.53,2.53,0,0,0,1.54,0c.69-.26.61,0,.95.64.2.38.64.34,1,.43a8,8,0,0,0,2.65.45c.39,0,2.79-.58,2.95-.24s.34,1,.62,1.22a6.82,6.82,0,0,0,1.39.79,2.72,2.72,0,0,0,.57,0c-.05.43-.72.39-1,.46.31.34.82,1.18,1.26,1.2s.43.06.66-.27l.71-1c0,1.13.07,2.25.11,3.38a5.92,5.92,0,0,0,0,1.19,7.91,7.91,0,0,0,.65,1.49c.78,1.77,1.54,3.51,2.43,5.21l1-.63c.3-.2.23-.58.27-1,.36.37.55.45.53,1a10.42,10.42,0,0,0,0,1.58c.11,1.23,1.65.44,1.26-.47a4.87,4.87,0,0,0-.72-1.35,2.72,2.72,0,0,1-.64-1.37,3.24,3.24,0,0,1,.31-1.39,6.11,6.11,0,0,0,0-1.48c0-.5-.16-.82.27-1a4.14,4.14,0,0,0,1.13-.57l2.39-2.44.84-.87c.1-.11-.06-.49,0-.61s.42-.06.49-.07l1.7-.23c.33,0,.71-.47,1-.65a4.56,4.56,0,0,0,1,1.84,4.3,4.3,0,0,1,1.13,1.93c.09.21-.1.82-.13,1-.08.54-.12.5.37.61s.44.12.75-.26l.73-.91a14.16,14.16,0,0,1,.85,3.45,12.77,12.77,0,0,1,.12,2c0,.34-.33,1.54-.12,1.77l1.38,1.47a6.54,6.54,0,0,1,.59,1.78c.21.64.24.86.73,1.24a3.49,3.49,0,0,0,1.56.94,12.14,12.14,0,0,1-.52-1.3c-.1-.46.07-1.08-.09-1.51a3.22,3.22,0,0,0-.82-.94c-.29-.21-1-.56-1.12-.92s-.3-1.44-.48-1.43c-.37,0-.37.09-.41-.32a1.34,1.34,0,0,1,0-.63,5.37,5.37,0,0,0,.46-1.42c.06-.83-.09-.93.68-1l-.08.57a2.42,2.42,0,0,1,1.81,1l1,1c.24.25-.23.76.11,1.1a34.52,34.52,0,0,0,2.86-2.42c.33-.31.08-1.35.06-1.8,0-.72-.27-.91-.72-1.48a10.8,10.8,0,0,1-1-1.38l-.64-1c-.08-.12.21-.74.25-.88.15-.47,1-.89,1.37-1.19a1.29,1.29,0,0,1,1.47.19c-.12,0-.23.12-.35.15a1.56,1.56,0,0,0,.26.68c.38.19.38-.25.32-.46s-.13-.33.16-.43l.66-.24c.21-2.36.33-4.75.33-7.16A77.43,77.43,0,0,0,159,29.14ZM134.64,68.58c-.11.23-.23.49,0,.73.07.09.34,0,.41.07a1.53,1.53,0,0,1,.14.46h-.29c.3.53.63.19.49.93a5.18,5.18,0,0,0,.06,1.47,4.53,4.53,0,0,1-1.47.18l-.91-.29c-.26-.07-.27-.3-.58-.38s-.47,0-.5-.41a1.76,1.76,0,0,1,0-.91,6.15,6.15,0,0,0,.29-.82c.11-.46.19-.42.61-.54a1.73,1.73,0,0,1-.91-.93c-.18-.31-.57-.42-.72-.77A2.62,2.62,0,0,1,131,66a.75.75,0,0,0-.73-.71c.14-.15.46-.38.51-.6.09-.46.06-.47.46-.65.16-.07.8-.22.85-.41.17-.7.13-.41.69-.51.23,0,.59-.4.8-.31s.62.38.85.12.45.35.52.47c.16.29,0,.62-.13.93.58.18.73-.28,1,.41-.44.05-.54.29-.79.64a.8.8,0,0,1,.48-.74,6.49,6.49,0,0,0-1.39-.21.66.66,0,0,0-.56.22c-.19.3,0,.34.27.56-.36.26-.45-.15-.79-.07s.44.4.44.42a3.49,3.49,0,0,0,.16,1,2.92,2.92,0,0,0,.95.43,1.19,1.19,0,0,0,.12,1.4c0-.34.1-1.24.68-.88.13.08.13.43.25.54s.5.32.42.65a3.57,3.57,0,0,1-1.38-.09Z"/><path class="cls-2" d="M86.94,44c.38.11.62-.21.6-.63.32.17.48-.14.7-.36-.25-.17-.06-.53-.19-.62s-.47-.34-.78-.23c.38-.64-1.46-1.39-1.15-.56-.54-.05-.7.23-1.22,0a3,3,0,0,0,.09.6c-.22-.3-.28-.55-.62-.56s-.39.31-.3.57c-.2-.21-.37-.56-.67-.5.24.56-.07.28-.22.53a5.11,5.11,0,0,0-.27.64,7.57,7.57,0,0,1-.42-.67.24.24,0,0,0,.29-.19s0,0,0-.06-.32-.22-.39-.28c-.41-.34-.38-.42-.91-.42.08.26.26.21.49.25.07.69-.62-.08-.84.19s.21.32.13.47-.3,0-.44,0,0,.15,0,.22c-.2,0-.16,0-.31.12.45.19.58.1,1-.09.21-.08.67.14.9.19l-.57.27a.57.57,0,0,0,.54,0V43c-.55,0-1.1.21-1.6.21.09.4,1,.2,1.28.2-.16.18-.07.32.17.29v.18h.17c-.13.39-.8.27-.64.72l1.31-.18c.11,0,.21.31.31.36a2,2,0,0,0,.59.13,1.38,1.38,0,0,0,1-.06c.17-.08.13-.23.33-.26l.6-.08C86.16,44.41,86.68,43.92,86.94,44Z"/><path class="cls-2" d="M45.07,85.81c-.21,0-.32-.35-.41-.34a1.44,1.44,0,0,1-1.15-.56l0,.1a6.2,6.2,0,0,0-2.7-1.15,4.25,4.25,0,0,0-1.58.21c-.45.11-.57.55-.93.78.72.38,1.54-1.25,2.26-.53a.44.44,0,0,1-.37.07.51.51,0,0,0,.52.2c.22-.07.25.1.49.11s.76.29,1.19.35.4.52.83.73c.11,0,.54-.07.54.23,0,.1-.37.36-.43.44a9.62,9.62,0,0,0,1.61,0l.86-.26A1.44,1.44,0,0,0,45.07,85.81Z"/><path class="cls-2" d="M42.87,87.74a2.43,2.43,0,0,0,.81.43c.16,0,.35-.22.65-.12a2.27,2.27,0,0,0-.18-.25C43.8,87.66,43.13,87.31,42.87,87.74Z"/><path class="cls-2" d="M39.07,45.88c-.21.16-.28.14-.18.39,0,.08.07.36.16.35a1.31,1.31,0,0,0,1.34-1H40A1.49,1.49,0,0,0,39.07,45.88Z"/><path class="cls-2" d="M43,31.27c-.22-.11-.52.05-.75,0L41.41,31a.47.47,0,0,0-.36.56.49.49,0,0,0,.25.33c.33.16.06.26.24.52a1.94,1.94,0,0,0,.48.28c.24.14,1-.18,1.27-.25a4.27,4.27,0,0,1,1.13,0A3.7,3.7,0,0,0,43,31.27Z"/><path class="cls-2" d="M46.34,39.54a.53.53,0,0,0-.56-.48.52.52,0,0,0-.36.19C45.16,39.54,46.23,39.53,46.34,39.54Z"/><path class="cls-2" d="M40.41,44.31c.5-.49-.79-1.13-1-1.31s-.48-.07-.65-.23-.31-.37-.58,0a1.11,1.11,0,0,1-.14-.29c.52-.1.36-.8-.08-.6s-.43.59-.57,1.08c-.06.21-.08.42-.12.63s.12.39.07.52-.58.53-.71.72a8.7,8.7,0,0,1,1-.18c.1.06.16.91.35.79s.5-.6.74-.68c.41-.15.37-.48.77-.64-.09.66,1,.79,1.44.91l.59-.39A1.11,1.11,0,0,0,40.41,44.31Z"/><path class="cls-2" d="M44.91,40.11c.28-.44.06-.65.23-1.09-.56-.77-2,.34-1.41.91C44,40.14,44.65,40.54,44.91,40.11Z"/><path class="cls-2" d="M42,46.27c-.25-.08-.51.22-.53.44s.11.36.31.58C42,47.1,42.62,46.47,42,46.27Z"/><path class="cls-2" d="M54.54,60.74a2.5,2.5,0,0,0-2-.75C53,60.34,54,61.17,54.54,60.74Z"/><path class="cls-2" d="M52.82,62.78c-.34.62.25.73.67.93s.54,0,.83-.38L53,63.23Z"/><path class="cls-2" d="M93.88,53.88a.47.47,0,0,0,.12.32C94.14,54,94.09,53.93,93.88,53.88Z"/><path class="cls-2" d="M170.89,104.11c.32-.33,0-.32,0-.59s0-.64-.18-.69-.52-.12-.54-.31.21-.37.16-.59-.49-.28-.49-.48c0-.37-.13-.21-.38-.39s0-.24-.36-.31-.43,0-.58-.24c-.28-.39-.72-.52-1.07-.86a8.15,8.15,0,0,1-1-.92c-.32-.47-.23-.7-.84-.77-.2,0-1.11-.38-1.2-.24s.58,1.14.71,1.25c.28.25.89.37.91.89s.7.47.85,1l.25,1c.06.23.26.14.41.29a6.69,6.69,0,0,1,.73,1.61,4.11,4.11,0,0,0,.79,1c.53.58,1.07,1.15,1.66,1.71.33-.81.63-1.63.93-2.46a.54.54,0,0,0-.74.1Z"/><path class="cls-2" d="M116.08,73.82c0-.27-.51-.36-.74-.33a1.21,1.21,0,0,1-1-.27,1,1,0,0,0-.16.37A5.42,5.42,0,0,0,116.08,73.82Z"/><path class="cls-2" d="M121.53,73.92c-.19-.34.14-.49.35-.68-.22.1-.57.36-.81.34s-.68-.14-.79.08C119.91,74.37,121.38,74,121.53,73.92Z"/><path class="cls-2" d="M171.69,103.37c-.21-.32-.3,0-.44.19a.38.38,0,0,0,.34.08.11.11,0,0,1,.1.09l.17-.49a.23.23,0,0,0-.19-.07A1.68,1.68,0,0,0,171.69,103.37Z"/><path class="cls-2" d="M104.09,68a2.77,2.77,0,0,0,.16-1.4c-.2,0,0,.22-.14.37a2.82,2.82,0,0,1-.46.38C103.4,67.58,103.86,68,104.09,68Z"/><path class="cls-2" d="M113.07,51.49c.2-.37.64-.46,1-.67a1.53,1.53,0,0,0-1.15,0A.55.55,0,0,1,113.07,51.49Z"/><path class="cls-2" d="M105,54.19c-.06-.26-.27-.19-.48-.07,0,.18.32.58.49.54a.25.25,0,0,0,.16-.31A.23.23,0,0,0,105,54.19Z"/><path class="cls-2" d="M110.94,37.05l.43-.15.61-.28C111.67,36.43,111.13,36.77,110.94,37.05Z"/><path class="cls-2" d="M100.17,69.74c-.26-.49-.43-.25-.8,0l.43.33Z"/><path class="cls-2" d="M40.23,26.76c.29.32.45-.08.64.08s.18.36.09.73l1.24-.38c.13,0,.19-.27.31-.33s.16.19.31.13.45-.08.43-.22,0-.48-.12-.57-.29-.23-.51-.1-.26.25-.45,0,.61-.78.74-.9c.42-.37-.24-.56,0-.72s.73.24,1,.15a1.46,1.46,0,0,0,.94-.7l-.71-.38,1.25-.17c0-.51-1-.55-1.39-.65h1.44c.1-.52-1-.43-1.51-.44q-2.27,2.22-4.34,4.61C39.77,27.11,40.19,27.21,40.23,26.76Z"/><path class="cls-2" d="M37.2,29.77c.23.31.82.43.94,0,.13.46.78.17,1.1.12a3.09,3.09,0,0,0-.09-.53c.45,0,.2.49.53.6a1.5,1.5,0,0,0,.78.15c.17,0,1,0,1-.23.13-.41.26-.38.63-.5a1,1,0,0,0-.61-.24l.52-.39A2.53,2.53,0,0,0,39.64,28c-.37.12-.68-.07-1.08.07h-.1c-.54.68-1.06,1.33-1.58,2h.32A.87.87,0,0,0,37.2,29.77Z"/><path class="cls-2" d="M51.83,138.84l.66-1.42c.11-.25-.32-.68-.37-.94a5.92,5.92,0,0,1,0-1.19c.72.36,1.13.57,1.82.09.15-.11,0-.53.12-.79.16-.42,0-.6-.08-1a3,3,0,0,0,1.69,0c.71-.19,1.29-.18,1.74-.82.15-.22.55-.62.6-.89a4.35,4.35,0,0,0-.25-1.19c-.12-.62-1.32-.7-1.12-1.41.32.1,2.4,1,2.56.81l2-2.56,2.17-2.79c.17-.22.13-.7.16-1s0-1.54.19-1.67l2.62-1.8c.3-.2,1.09-.08,1.42-.1s.52-.52.72-.82c.45-.7,1.36-1.59,1.42-2.48.1-1.32.2-2.64.29-4a2.57,2.57,0,0,1,.68-1.28l1.87-2.7c.5-.73.48-.72.27-1.65-.1-.42-.2-.85-.29-1.28,0-.1-.92-.11-1-.12a12.19,12.19,0,0,0-2.31-1.66l-2.88-1-2.87-1c-.16-.06-.4-.53-.52-.67l-1.34-1.76c-.43-.58-1-1.73-1.68-1.91s-2-.19-2.61-.76l-2.78-2.67a3.44,3.44,0,0,0-1.8-.64l-3.57-.83c-.46-.1-1.29-.51-1.75-.34l-1.51.53c-.18.07-.87.19-1,.37-.36.6-1.28,1.61-1.25,2.35a2.65,2.65,0,0,0-1.28-1c-.62-.18-.92,0-1.51.29-1,.39-2.24-1.32-2.1-2.37,0-.22.21-.41.25-.64l.18-1.16a1.07,1.07,0,0,0-.76-1.2,4.14,4.14,0,0,0-.86-.12c-.23,0-.41.17-.65.14a9,9,0,0,1-1.72-.14c.18-.16.6-.63.48-.88s.32-1-.07-1a1.68,1.68,0,0,1,.2-.34.6.6,0,0,0,.15.53,6,6,0,0,1,.25-.92l-.12.08v0c.08-.06.14-.15.22-.21-.21,0-.16-.09-.25-.14.18,0,.52-.76.63-1,.26-.64-.58-.45-.88-.49a3.67,3.67,0,0,0-1.14.23c-.52.2-.48.78-.62,1.28a1.09,1.09,0,0,1-.42.57c-.09.08.06.23,0,.28a1,1,0,0,1-.32.15c-.1,0-.25-.19-.43-.18a2.65,2.65,0,0,0-.69.15l-.76.29c-.11,0-.32-.28-.44-.33-.62-.18-.76-.58-1.14-1.14a4.92,4.92,0,0,1-.8-3,5,5,0,0,1,.32-1.36,2.51,2.51,0,0,0,.17-.61c0-.24-.35-.5-.35-.75,0-.81,1.35-1.81,1.91-2,.35-.14.91-.55,1.27-.42.18.08.47.26.66.2s.48.09.78.31.4-.2.57.16c0-.14.08-.2,0-.38.18.12.58.21.48.48a.22.22,0,0,0,.26-.15.21.21,0,0,0,0-.11c0-.07-.4-.2-.48-.24.72-.35-.25-.47-.51-.5.37-.29,1.63.11,1.7-.46.11.65.76.15,1.15.25a2.94,2.94,0,0,1,.67.43c.22.15.47,0,.7-.1.44-.14.64.37,1,.62s0,.9.15,1.32l.15-.13c-.08.32.05.49.18.77a4.22,4.22,0,0,1,.32.76s.42.41.49.51c.23.32.4.06.59-.13a2.52,2.52,0,0,0,.06-1.53,11.51,11.51,0,0,0-.71-1.91,1.91,1.91,0,0,1-.11-1.39,2.43,2.43,0,0,1,1.22-1.39,2.17,2.17,0,0,0,.49-.56c.17-.22.48-.15.58-.29s.3-.6.48-.71.26.14.37.07l.44-.24c-.21-.12-.4.16-.52-.15.15,0,.21-.08.33-.12-.08,0-.14-.13-.22-.18.14,0,.69,0,.71-.19.07-.39-.39-.3-.65-.3.3-.1.52-.06.59-.42s-.27-.29-.34-.56.15-.57.07-.72-.42-.25-.55-.44a1.41,1.41,0,0,1,.5.26c-.14-.65-.3-.9.23-1.28.22-.16,0,.31,0,.35a2.91,2.91,0,0,0-.17.72c.33-.1.25.23.41.33a1.85,1.85,0,0,0-.21.69h.07a6.6,6.6,0,0,1,.56-1.09c.16-.33-.3-.82-.32-1.18.1.3.54.46.4.73.22-.19,1.11-1.37.5-1.44.15-.27.59-.18.84-.2a1.7,1.7,0,0,0,.78-.3h-.34l.14-.1c-.4.06-.73.26-1.14.31a2.53,2.53,0,0,1,1.53-.46c.22,0,.16-.44.31-.4s.6.23.87,0a1,1,0,0,0-.19-.22l.07.17c-.91.09-.25-1.12-.1-1.48s.1-.42.33-.51a1,1,0,0,0,.69-.54l.14.14c.16-.3,1.32-.06,1.11-.75.14,0,.39.07.49,0s.2,0,.38-.1.69-.61,1-.53a1,1,0,0,0-.24.46c.25-.17.61-.07.89-.06-.23.19-.37.49-.61.27s0-.32-.26-.14-1.43.81-1,1.45c.13,0,.33.34.54.13s.57-.74.85-1,.2.24.39.08A1.53,1.53,0,0,1,53.6,65l1.27-.52c-.08-.07-.12-.19-.2-.26a1.73,1.73,0,0,0,1-.29c.26-.11-.17-.57-.46-.33.09-.32.32-.68-.08-.83-.22.33-.84.91-.53,1.3a.71.71,0,0,1-.31.1v-.25c-.44.33-.95.11-1.47-.13l.12-.09c-.35-.09-.85-.47-.68-.94h-.33a1,1,0,0,0,.4-.62.88.88,0,0,0-.6,0,2.43,2.43,0,0,0-.48-.4c.33-.23.57.21.86,0s.84-.43.39-.73a.24.24,0,0,1,.22.09c-.44-1.1-2.1-.16-2.71.13-.89.44-1.37,1.38-2.26,1.81A10.22,10.22,0,0,0,49,61.56a6.37,6.37,0,0,1,.79-.85c.17-.12.82-.19.87-.42.17-.89.86-.66,1.53-.7a13.47,13.47,0,0,1,2.2,0A1.68,1.68,0,0,0,56,59a1.55,1.55,0,0,1,.71-.58c.33-.1.62,0,.91-.12a2.22,2.22,0,0,0,.83-.51c.26-.38-.13-.5,0-.83.07-.17.3-.75,0-.85s-.67-.36-.91.09c-.2-.26.16-.23,0-.56s-.51-.28-.72-.27a.44.44,0,0,0,.32.17,2,2,0,0,0-.87.24c-.1.06,0,.15-.21.23a.73.73,0,0,0-.44.27c-.15.2-.24-.38,0-.47s.83-.12,1-.41c-.25.07-.54.23-.76.15a7.3,7.3,0,0,1,1.1-.33c.67-.1.06-.39-.24-.59a1.93,1.93,0,0,0-1.21-.35c-.28,0-.08-.24-.2-.46a2.51,2.51,0,0,0-.58-.45c-.06,0-.42-.27-.44-.36s.32-.48.31-.67c0-.36-.59-1-.77-1.33-.34-.58-.81-2-1.51-2a1.14,1.14,0,0,1,.12-.49c-.31-.07-.74.53-.69.84a2.71,2.71,0,0,1-.4,1.18c-.07-.08-.21-.09-.28-.17-.34,1.82-1.95-1.11-2.41.23-.26-.25.22-.59.4-.81h-.29a1.59,1.59,0,0,0,0-1c-.06-.36,0-.45.24-.76a1.59,1.59,0,0,0-.86-.18c-.42.07-.65-.23-.75-.61s-.61-.5-.8-.64c-.41-.29-.52-.52-.95-.32-.69.33-1.34-.28-2-.2-.39,0-.62.17-.51.55a1.66,1.66,0,0,1,0,1.31,1.83,1.83,0,0,0,.19,1c.17.61.13.55-.32,1s-.31.34,0,.8a6.44,6.44,0,0,0,.8.85,2.2,2.2,0,0,1,0,2.14c-.37.52-1.37.89-1.89,1.23.15.24.53.61.57.89l.26,1.59c.08.49-.92,1.58-1.38,1s-1.3-1.23-1.27-2c0-.59.05-1.19.07-1.78,0-.17-.81-.16-1-.18L38,54.28c-.29,0-.75-.53-1-.7a8.61,8.61,0,0,0-2.24-1.14c-.28-.1-.62-.31-.92-.24-.57.13-.71.34-.92-.25a5.55,5.55,0,0,0-.51-1.42c-.25-.22-.87-.21-1.16-.27.16-.74.31-1.47.46-2.21a6.11,6.11,0,0,1,1-1.77c.07-.11.3-.59.43-.58a1.6,1.6,0,0,0,1-.16c.36-.16,0-.48-.18-.6a.94.94,0,0,0-.93-.12c.07,0,.1-.13.16-.18l-.85-.39c.42.12.85.22,1.28.35.67.21.72.18,1.31-.25.19-.13.4-.06.64,0s.4-.16.56-.24a6.2,6.2,0,0,0,.74-1.22,5.24,5.24,0,0,1-1.47-.18l-1.61-.81a4.41,4.41,0,0,1,2.09.36c.45.24.6.45,1,.21a2.5,2.5,0,0,0,.65-.83L37,41.32c.15-.35.56-.22.86-.24.13,0,0,.34.16.37l.59.14a1,1,0,0,0-.07-.23l.58.3-.37-.84c.25.23.46.63.76.44a4.19,4.19,0,0,0,1.11-.68c.36-.45.2-.68-.12-1a2.91,2.91,0,0,1-.61-1,1.77,1.77,0,0,0,.81-.12c.14-.13-.11-.51.09-.89a1.31,1.31,0,0,1-.94-.57c-.18-.21-.9-.18-1.16-.23s-.65-.19-.74.27.13.63.38,1c-.61.26-.62.23-.62.95,0,.15-.31.33-.4.42a1.1,1.1,0,0,0-.18.61c-.09,1-2-.81-1.18-1.31V39c.44-.14.21-.54.13-.9s-.63-.44-.8-.54-.39.44-.4.59a1.6,1.6,0,0,1-.38.86c-.37-.23-.29-.33-.19-.73s-.06-.42-.37-.68l.46-.31c-.32-.15-.56-.41-.86-.2s-.55,0-.87-.14l1-.64c-.16-.19-.45-.43-.67-.69-.33.52-.67,1-1,1.57.16,0,.31,0,.32.27a1.59,1.59,0,0,0-.57.14l-.28.46v.18l.61-.29c0,.23.17.45,0,.62s-.42.52-.76.59c-.79.12-.55.69-.34,1.34a7.48,7.48,0,0,1-.67-.41,77.38,77.38,0,0,0-9.76,37.74v2.56l.29.36c.08.1.33.33.3.47s-.15.43-.05.53L22.39,83a4.18,4.18,0,0,1,.68.83c.19.29.87,1,.76,1.38-.16.56-.4.8,0,1.2l1.29,1.31a2.41,2.41,0,0,0,.76.32l2,.8c.83.33,1.7,1,2.55.69.38-.12.82-.45,1.14-.13l1.45,1.43c.55.54,1.7.59,2.4.78.91.26,1.29.91,1.94,1.66.26.29.16.77.36,1.08a6,6,0,0,0,1.25,1l.49.37c.11.07.21-.11.37-.08s.84.61,1,.28c.26.6.23.53.78.3-.07-.11-.35-.44-.25-.53a3.51,3.51,0,0,1,.56-.46c.28-.15.28-.17.56,0s.4.17.29.63.76.73.68,1.12c0,.15.07.56,0,.59-.21.21,0,.36,0,.66.19,1.27-.42,1.8-1.12,2.7l-1,1.22a4.55,4.55,0,0,0-.32,1.32c-.16.66-.73,1.83-.4,2.47L42.3,109l2,3.76a3.15,3.15,0,0,0,1,1.4L47,115.29a4.49,4.49,0,0,1,1.1.76,4.7,4.7,0,0,1,.17,1.44,11.18,11.18,0,0,1,.21,1.63,15.35,15.35,0,0,1-.36,1.89l-.8,4.24-1.32,7c-.17.94-.28,1.9-.38,2.85q2.5,2.3,5.19,4.37a.53.53,0,0,1,.17-.08C51.54,139.27,51.61,139.31,51.83,138.84ZM42.44,66.77a5.32,5.32,0,0,1-1.38.81c-.55.2-.82.51-1.46.45l.1-.14-.47-.13a5.37,5.37,0,0,1,.59-.9c.06.22.08.09.19.26a.53.53,0,0,0-.41.4c.3.15.45-.07.67-.26a.82.82,0,0,1,.8-.29c.28,0,1.26-.23,1.26-.53a.43.43,0,0,1,.12.39Zm-.27-.92c.4-.09.9-.31,1.28-.15.23.09.86-.4,1.16-.52l-.45.39c.54.21-.51,1.12-1,.65s-1.81.79-1-.32Zm-8.12-3.72,1-.42c.26-.11.1-.46.47-.53a1.34,1.34,0,0,1-.09.26c.23-.1.19-.36.4-.48a.75.75,0,0,1-.13.36c.22-.13.44-.29.19-.5a1.43,1.43,0,0,1,.72.23c.19.08.43-.24.61,0,.36.54.34.84,1,.73-.17.49.12.31.22.64,0,.12-.14.2,0,.32s.16.2.09.33.88.42,1,.45c.47.09,1,.11,1.49.21s.51.84.86,1.15c-.31-.18-.2.15-.24.15s-.49-.18-.67,0c0-.09,0-.07-.11-.13.08-.08.06-.11.1-.21-.3,0-.14-.43-.5-.24.51.24.15.64,0,1-.05.16,0,.48-.06.59l-.49.54c0-.22,0-1-.35-1-.12,0-.66.48-.72.26s.27-.44.32-.47c.23-.15.17-.52,0-.75h.12c-.09-.39-.41-.28-.62-.52s-.85-.28-.53.15c-.37,0-.29.39-.48.6v-.4c-.21.44-.71.54-.58,1.24a2.34,2.34,0,0,1-.08,1.67c-.58,1.18-.89-.33-.92-.92a3.78,3.78,0,0,1,.26-1.14c.07-.27.33-.67.29-.93-.23.15-.36.69-.65.64a3.39,3.39,0,0,1,.72-1.23V64c.09-.09.18-.09.28-.15l-.12.16.08.06A.85.85,0,0,1,38,63.72a.71.71,0,0,1,.14.1c.11-.29.36-.14.6-.11-.13-.13-.2-.39-.34-.46s-.49,0-.39-.32a10.72,10.72,0,0,1-1.27.32c-.23-.13-.38,0-.55-.25s-.4-.21-.64-.08a.86.86,0,0,1,.52-.58c-.52-.41-1.52,1-2.21.63l.08-.19c-.29.09-.58.28-.87.13ZM29,57.76c-.14-.28-.84-1-.28-1.08-.48-.14-.59,0-.41-.67.1-.4.58-.16.82,0-.32-.24-.32-.36-.1-.77l.16.14a.41.41,0,0,0-.29.32.25.25,0,0,0,.27-.13h.07c-.3.17.39,1.7.53,2a2.29,2.29,0,0,0,.39.78c.18.15,0,.46.08.73A.24.24,0,0,1,30,59c0,.16-.17.52-.26.22a.75.75,0,0,1,.22-.85,1.26,1.26,0,0,0-.26.13c0-.12.22-.41.12-.46s-.26.06-.33.19c0-.22.09-.52-.14-.6a.17.17,0,0,1-.07.13v-.22c-.17.1-.14,0-.18.25Z"/><path class="cls-2" d="M34.62,33.63a3.09,3.09,0,0,0,.18.95c.77.08,1.26,0,1.81.58l-1.6-.1a2.46,2.46,0,0,0,1,1c.32.18.46-.06.71-.09.58,0,.17.1.47.4a1.92,1.92,0,0,0,.78.2,6,6,0,0,1,1.74.1l.52.2c.11,0,.18-.23.26-.22.25,0,.32.4.61.28l-.64-.6a3.84,3.84,0,0,0,2.22.24c-.16-.35-.2-.53-.57-.63.45-.42.41.24.73.38.12.06.41-.13.44,0s.07.36.11.54c.39-.4,1.08.5,1.39.75-.59.18-.7.08-.7.75l.8-.3c.36-.14.33-.17.53.18s.84.33,1.13.84l.55,1c.09.16-.1.24-.23.37l-1.33,1.28c.14.11.69.38.59.65s-.83.25-1,.28a4.54,4.54,0,0,1-1.64-.12c.06.35-.4.44-.57.74s.25.67.49.66.78.06,1-.2.61,0,.93,0c0-.11.06-.23,0-.33.22,0,.36.09.36.33.56-.36.54,0,.91.54.2.31.58.28.89.46l-.57.28a1.56,1.56,0,0,0,.9.34l-.12.18,1.07.28c.15,0,.14.36.4.42l2.11.55c0-.34.14-.47-.11-.65l-.78-.56c-.17-.11-.56-.08-.66-.25l-.43-.74.75.33c-.06-.11-.06-.25-.12-.36l1.29.81c.23.15.63.67.78.62l-.16-.44a.35.35,0,0,1,.26.08c.16-.38-.37-.48-.16-.86l.35.47a3,3,0,0,0-.12-.94c-.15-.24-.43-.13-.51-.46s0-.49-.37-.64-.49-.33-.58.12l-.27-.85c-.12-.34-.19-.2-.48-.09l-.19-.59.59.08c0-.39-.44-.36-.21-.71s.35-.21.6-.06.44.56.68.61.56-.2.73-.26c.12.43-.29.47-.57.6A3.49,3.49,0,0,0,53,43.17,2.79,2.79,0,0,0,53,42c.52.35.73.08,1.27-.21l-.54-.26c.17-.2.53,0,.76,0,.06-.51.24-.81-.24-1a3.23,3.23,0,0,0-1.16,0l.31-.47c-.47-.07-.68,0-1-.41a1.63,1.63,0,0,0-.77-.57c-.77-.29-1.52-.57-2.27-.92L50,38l-.09-.6.89.18c-.17-.48-.14-.46-.6-.38a1.51,1.51,0,0,1-.72-.18,1.34,1.34,0,0,1,1-.28c0-.37-.4-.56-.65-.73-.06.39-.45.46-.72.6.1-.4-.2-.33-.46-.38.33-.1.9-.11,1-.52-.29-.16-1.77-1.12-2-.71s-.65.67-.81.24c-.06-.18.62-.48.79-.58-.2-.64-1-.54-1.46-.39-.26.1-.91-.93-1.17-1.18a2.24,2.24,0,0,0-1.46-.57,1.68,1.68,0,0,0-.84.14c-.16.14-.47.57-.61.5-.45-.28-.41-.3-.8.09-.21.21-.52.21-.31-.15s.28-.45.07-.89-.27-.27-.45-.51-.09-.62-.39-.63a2.1,2.1,0,0,0-.79,0,8.89,8.89,0,0,1-1.6.55L38,31a3.1,3.1,0,0,0-2,.24,2,2,0,0,0-.47.28l-.68.94v.08C34.92,32.86,34.59,33.41,34.62,33.63Z"/><path class="cls-2" d="M111.78,49.1v-.23h.11C111.8,48.4,111.19,48.75,111.78,49.1Z"/><path class="cls-2" d="M21.07,83.59a1,1,0,0,0-.36-.62,4.9,4.9,0,0,0,.06.94C20.9,83.93,21,83.83,21.07,83.59Z"/><path class="cls-2" d="M40.42,64.08l-.1.11h.07c.12-.15.17-.22.12-.37l-.08.11a.3.3,0,0,0-.36-.21l-.09,0c-.24.1-.32-.13-.57.05h.2C39.83,64,40.18,64.27,40.42,64.08Z"/><path class="cls-2" d="M34.12,62.87l-.08.19c.69.38,1.7-1,2.22-.63a.9.9,0,0,0-.53.58c.24-.13.48-.15.64.08s.32.12.56.25A9.44,9.44,0,0,0,38.2,63c-.1.31.19.23.38.32s.21.33.35.46c-.25,0-.5-.18-.6.11a.85.85,0,0,0-1.19.09.56.56,0,0,0-.1.15L37,64.08l.11-.16c-.09.07-.18.07-.28.15v-.19A3.49,3.49,0,0,0,36,65.1c.29.06.42-.49.65-.64a5,5,0,0,1-.29.93,4.1,4.1,0,0,0-.26,1.14c0,.59.34,2.1.92.92a2.34,2.34,0,0,0,.08-1.67c-.13-.7.38-.81.58-1.24v.4c.19-.21.11-.57.48-.6-.32-.43.34-.35.53-.15s.54.12.62.52h-.12c.13.23.19.6,0,.76,0,0-.35.34-.31.46s.58-.27.72-.26.29.76.34,1l.49-.53c.1-.12,0-.44.06-.6.11-.35.48-.73,0-1,.36-.18.2.29.51.24a.2.2,0,0,1-.1.21c.08.06.08,0,.11.13.17-.16.48.07.67,0,0,0-.08-.32.23-.15-.34-.31-.31-1-.86-1.15s-1-.12-1.48-.21c-.18,0-1.14-.32-1-.45s0-.22-.09-.32.09-.21.05-.33c-.1-.33-.39-.15-.21-.64-.7.12-.69-.18-1-.73-.18-.29-.41,0-.61,0A1.4,1.4,0,0,0,36,60.9c.26.21,0,.37-.19.51a.72.72,0,0,0,.13-.37c-.21.11-.17.39-.39.48l.09-.26c-.38.06-.22.41-.48.53l-.94.42-.85.82C33.55,63.16,33.83,63,34.12,62.87Zm5.86,1a.29.29,0,0,1,.41.09.2.2,0,0,1,0,.08l.08-.11c.05.15,0,.23-.12.37h-.07l.1-.1c-.24.14-.58-.09-.81-.19h-.2c.24-.31.33-.08.57-.18Zm-.64,0V64a.72.72,0,0,1-.35-.08l.14-.12ZM39,63.64l-.07.14-.15-.15a.14.14,0,0,1,.22-.06Z"/><path class="cls-2" d="M39,63.57c-.14-.1-.18,0-.22,0l.15.15Z"/><path class="cls-2" d="M39.35,63.9v-.09l-.21-.11-.14.12A.85.85,0,0,0,39.35,63.9Z"/><path class="cls-2" d="M103.68,69.09c0,.1-.17.3-.19.41s.17.16.16.22c-.05.32-.32.35-.06.61s.43.22.46-.11.3,0,.34-.36.09-.71.14-1.08c.09-.73-.75-.29-1-.16l-.21-.08C103.25,68.93,103.63,68.81,103.68,69.09Z"/><path class="cls-2" d="M131.37,19.85l-1,.67a4.34,4.34,0,0,0,1.64.26l-.15-.54,2-.47c-.36-.24-.6-.46-1-.34a2.44,2.44,0,0,1-1.22.19,4.1,4.1,0,0,0-2.37.32l.91.25Z"/><path class="cls-2" d="M134.2,34.71a2.4,2.4,0,0,0,1.57.82c.53,0,1.66.39,2.14,0-.75-.51-1.37-1-1.39-2,0-.83.77-1.53,1.24-2,.28-.33.53-.69.8-1a4.41,4.41,0,0,1,1.1-.71,7.24,7.24,0,0,1,1.72-1.19c.83-.25,1.66-.49,2.49-.78.41-.14,2-.44,2.14-1.18.08-.89-1.63-.51-1.93-.26a5.78,5.78,0,0,1-2.26.9,4.72,4.72,0,0,0-2,.35,6.68,6.68,0,0,0-1.87.78,16.43,16.43,0,0,0-1.47,1.42l-1,1.07c-.25.29-.11.47,0,.85,0,.15-.67.54-.79.63-.45.32,0,.34-.25.77s-.63.17-.65.59C133.76,34.28,133.82,34.29,134.2,34.71Z"/><path class="cls-2" d="M135.7,20.44c-.79-.28-.81-.24-1.47.29l1,.13Z"/><path class="cls-2" d="M138.25,19.42a4.19,4.19,0,0,0-1.41-.31c-.69,0-.93-.06-1.4.5l1.36.36A2.72,2.72,0,0,0,138.25,19.42Z"/><path class="cls-2" d="M138.63,18.58l-.55-.48,1.12-.28c-.62-.11-.87-.24-1.38.12s-.82.58-1.25.85l1.15.16Z"/><path class="cls-2" d="M108.75,38.91h-.26a1.15,1.15,0,0,0,0,.37l.66-.68C109,38.54,108.83,38.71,108.75,38.91Z"/><path class="cls-2" d="M112.25,36.22a.92.92,0,0,0-.33,0l.08.22C112.15,36.58,112.27,36.48,112.25,36.22Z"/><path class="cls-2" d="M112.77,36.33a2.2,2.2,0,0,0,1.57-.84c-.31,0-.31.28-.57.41a2.4,2.4,0,0,1-.8.08C113.1,36.17,113,36.29,112.77,36.33Z"/><path class="cls-2" d="M113.73,35.83c.16-.16.33-.24.35-.46-.24.12-.19.26-.47.18a1.14,1.14,0,0,0-.58,0C113.16,36,113.42,35.85,113.73,35.83Z"/><path class="cls-2" d="M139,35.9l-.39.24c.11.29,1,1,1.31.75S139.16,36,139,35.9Z"/><path class="cls-2" d="M147,31.51c-.44,0-.33.25-.37.71l1.17-.2A.69.69,0,0,0,147,31.51Z"/><path class="cls-2" d="M131.74,38.17c.22.23.91-.38,1.08-.51a1.64,1.64,0,0,0-.88-.44C131.43,37.43,131.27,37.69,131.74,38.17Z"/><path class="cls-2" d="M110.92,52.09c-.23-.27,0-.41.14-.62-.7-.17-.76.54-.73,1.08A1.42,1.42,0,0,1,110.92,52.09Z"/><path class="cls-2" d="M105.7,54.51c.3,0,.24.24.3.52,0-.33,0-.69.4-.72-.08-.05-.13-.17-.21-.22,1-.21-.61-1.07-.14-.16-.21,0-.28-.11-.17-.31h-.24a.3.3,0,0,1-.17.37C105.41,54.18,105.47,54.52,105.7,54.51Z"/><path class="cls-2" d="M139.6,21c-.15-.33-.47-.11-.72,0,.11.09.22.18.34.26Z"/><path class="cls-2" d="M138.62,20.13c-.17,0-2,.08-1.81.57s1.4.13,1.84,0c-.07-.06-.1-.18-.17-.24l.66-.1Z"/><path class="cls-2" d="M139.39,20.18c.25,0,.4-.08.56.13s1-.16,1.25-.44-.36-.81-.69-.73a6.24,6.24,0,0,0-1.46.54C139.14,19.92,139.14,20.18,139.39,20.18Z"/><path class="cls-2" d="M141.81,19.81l1.38-.31c.42-.11.29-.28.26-.75a2.54,2.54,0,0,0-.68.06c-.14.05-.13.42-.26.49-.36.21-.73-.32-1,.22A3,3,0,0,0,141.81,19.81Z"/><circle class="cls-3" cx="161.09" cy="9.18" r="6.08" transform="translate(62.99 137.29) rotate(-55.82)"/><circle class="cls-3" cx="6.08" cy="75.07" r="6.08"/><path class="cls-4" d="M160.08,8.37A100,100,0,1,1,4.52,91.59,101.12,101.12,0,0,1,6.05,74.07"/></g></g></g></svg>